  0
SECTION
  2
HEADER
  9
$ANGBASE
  50
0.0
  9
$ANGDIR
  70
1
  9
$MEASUREMENT
  70
1
  9
$INSUNITS
  70
4
  0
ENDSEC
  0
SECTION
  2
TABLES
  0
TABLE
  2
LTYPE
  70
4
  0
LTYPE
  5
40F
  2
CONTINUOUS
  70
0
  3
Solid line
  72
65
  73
0
  40
0.0
  0
LTYPE
  5
410
  2
DASHDOT
 70
0
  3
Dash Dot ____ _ ____ _
 72
65
 73
4
 40
2.0
 49
1.25
 49
-0.25
 49
0.25
 49
-0.25
  0
LTYPE
  5
411
  2
DASHED
 70
0
  3
Dashed __ __ __ __ __
 72
65
 73
2
 40
0.75
 49
0.5
 49
-0.25
  0
LTYPE
  5
43B
  2
DOTTED
 70
0
  3
Dotted .  .  .  .
 72
65
 73
2
 40
0.2
 49
0.0
 49
-0.2
  0
ENDTAB
  0
TABLE
  2
STYLE
  70
4
  0
STYLE
  2
KICAD
  70
0
  40
0
  41
1
  42
1
  50
0
  71
0
  3
isocp.shx
  0
STYLE
  2
KICADB
  70
0
  40
0
  41
1
  42
1
  50
0
  71
0
  3
isocp.shx
  0
STYLE
  2
KICADI
  70
0
  40
0
  41
1
  42
1
  50
15
  71
0
  3
isocp.shx
  0
STYLE
  2
KICADBI
  70
0
  40
0
  41
1
  42
1
  50
15
  71
0
  3
isocp.shx
  0
ENDTAB
  0
TABLE
  2
LAYER
  70
8
  0
LAYER
  2
F.Cu
  70
0
  62
13
  420
13120564
  6
CONTINUOUS
  0
LAYER
  2
B.Cu
  70
0
  62
153
  420
5078980
  6
CONTINUOUS
  0
LAYER
  2
F.Paste
  70
0
  62
253
  420
11837594
  6
CONTINUOUS
  0
LAYER
  2
B.Paste
  70
0
  62
132
  420
49858
  6
CONTINUOUS
  0
LAYER
  2
B.Silkscreen
  70
0
  62
31
  420
15250087
  6
CONTINUOUS
  0
LAYER
  2
F.Mask
  70
0
  62
201
  420
14181631
  6
CONTINUOUS
  0
LAYER
  2
B.Mask
  70
0
  62
4
  420
196590
  6
CONTINUOUS
  0
LAYER
  2
Edge.Cuts
  70
0
  62
254
  420
13685453
  6
CONTINUOUS
  0
ENDTAB
  0
ENDSEC
  0
SECTION
  2
ENTITIES
0
LINE
8
Edge.Cuts
6
CONTINUOUS
10
141.7538539999999898
20
-60.7659329999999969
11
141.9263489999999877
21
-60.8120499999999993
0
LINE
8
Edge.Cuts
6
CONTINUOUS
10
141.9263489999999877
20
-60.8120499999999993
11
142.0882249999999942
21
-60.8873989999999949
0
LINE
8
Edge.Cuts
6
CONTINUOUS
10
142.0882249999999942
20
-60.8873989999999949
11
142.2345699999999908
21
-60.9896949999999975
0
LINE
8
Edge.Cuts
6
CONTINUOUS
10
142.2345699999999908
20
-60.9896949999999975
11
142.3609449999999867
21
-61.1158319999999975
0
LINE
8
Edge.Cuts
6
CONTINUOUS
10
142.3609449999999867
20
-61.1158319999999975
11
142.463515000000001
21
-61.2619860000000003
0
LINE
8
Edge.Cuts
6
CONTINUOUS
10
142.463515000000001
20
-61.2619860000000003
11
142.5391679999999894
21
-61.4237199999999959
0
LINE
8
Edge.Cuts
6
CONTINUOUS
10
142.5391679999999894
20
-61.4237199999999959
11
142.5856080000000077
21
-61.5961280000000002
0
LINE
8
Edge.Cuts
6
CONTINUOUS
10
142.5856080000000077
20
-61.5961280000000002
11
142.6014279999999985
21
-61.7739789999999971
0
LINE
8
Edge.Cuts
6
CONTINUOUS
10
142.6014279999999985
20
-61.7739789999999971
11
142.6014279999999985
21
-61.7739809999999991
0
LINE
8
Edge.Cuts
6
CONTINUOUS
10
142.6014279999999985
20
-61.7739809999999991
11
142.6198559999999986
21
-74.6636199999999945
0
LINE
8
Edge.Cuts
6
CONTINUOUS
10
142.6198559999999986
20
-74.6636199999999945
11
142.6096639999999809
21
-74.8694479999999913
0
LINE
8
Edge.Cuts
6
CONTINUOUS
10
142.6096639999999809
20
-74.8694479999999913
11
142.5786060000000077
21
-75.0731739999999945
0
LINE
8
Edge.Cuts
6
CONTINUOUS
10
142.5786060000000077
20
-75.0731739999999945
11
142.5270019999999818
21
-75.2726880000000023
0
LINE
8
Edge.Cuts
6
CONTINUOUS
10
142.5270019999999818
20
-75.2726880000000023
11
142.4553870000000018
21
-75.4659249999999986
0
LINE
8
Edge.Cuts
6
CONTINUOUS
10
142.4553870000000018
20
-75.4659249999999986
11
142.3645029999999849
21
-75.6508819999999957
0
LINE
8
Edge.Cuts
6
CONTINUOUS
10
142.3645029999999849
20
-75.6508819999999957
11
142.3641470000000027
21
-75.651212000000001
0
LINE
8
Edge.Cuts
6
CONTINUOUS
10
142.3641470000000027
20
-75.651212000000001
11
142.3638589999999908
21
-75.6519739999999956
0
LINE
8
Edge.Cuts
6
CONTINUOUS
10
142.3638589999999908
20
-75.6519739999999956
11
136.7905729999999949
21
-84.5739779999999968
0
LINE
8
Edge.Cuts
6
CONTINUOUS
10
136.7905729999999949
20
-84.5739779999999968
11
136.7904169999999908
21
-84.5741429999999923
0
LINE
8
Edge.Cuts
6
CONTINUOUS
10
136.7904169999999908
20
-84.5741429999999923
11
136.6632180000000005
21
-84.7741240000000005
0
LINE
8
Edge.Cuts
6
CONTINUOUS
10
136.6632180000000005
20
-84.7741240000000005
11
136.5124439999999879
21
-84.9589160000000021
0
LINE
8
Edge.Cuts
6
CONTINUOUS
10
136.5124439999999879
20
-84.9589160000000021
11
136.3409879999999816
21
-85.1246989999999926
0
LINE
8
Edge.Cuts
6
CONTINUOUS
10
136.3409879999999816
20
-85.1246989999999926
11
136.1512280000000032
21
-85.2691719999999975
0
LINE
8
Edge.Cuts
6
CONTINUOUS
10
136.1512280000000032
20
-85.2691719999999975
11
135.9457979999999964
21
-85.3903299999999916
0
LINE
8
Edge.Cuts
6
CONTINUOUS
10
135.9457979999999964
20
-85.3903299999999916
11
135.7275469999999871
21
-85.4864939999999933
0
LINE
8
Edge.Cuts
6
CONTINUOUS
10
135.7275469999999871
20
-85.4864939999999933
11
135.4995020000000068
21
-85.5563279999999935
0
LINE
8
Edge.Cuts
6
CONTINUOUS
10
135.4995020000000068
20
-85.5563279999999935
11
135.2648289999999918
21
-85.5988649999999893
0
LINE
8
Edge.Cuts
6
CONTINUOUS
10
135.2648289999999918
20
-85.5988649999999893
11
135.0267819999999972
21
-85.6135120000000001
0
LINE
8
Edge.Cuts
6
CONTINUOUS
10
135.0267819999999972
20
-85.6135120000000001
11
135.0267819999999972
21
-85.6135129999999975
0
LINE
8
Edge.Cuts
6
CONTINUOUS
10
135.0267819999999972
20
-85.6135129999999975
11
88.184952999999993
21
-85.7340619999999944
0
LINE
8
Edge.Cuts
6
CONTINUOUS
10
88.184952999999993
20
-85.7340619999999944
11
88.1754379999999998
21
-85.7371809999999925
0
LINE
8
Edge.Cuts
6
CONTINUOUS
10
88.1754379999999998
20
-85.7371809999999925
11
87.9971209999999928
21
-85.7220169999999939
0
LINE
8
Edge.Cuts
6
CONTINUOUS
10
87.9971209999999928
20
-85.7220169999999939
11
87.8241579999999971
21
-85.6760689999999983
0
LINE
8
Edge.Cuts
6
CONTINUOUS
10
87.8241579999999971
20
-85.6760689999999983
11
87.6618239999999957
21
-85.6007379999999927
0
LINE
8
Edge.Cuts
6
CONTINUOUS
10
87.6618239999999957
20
-85.6007379999999927
11
87.5150659999999903
21
-85.49832099999999
0
LINE
8
Edge.Cuts
6
CONTINUOUS
10
87.5150659999999903
20
-85.49832099999999
11
87.3883589999999941
21
-85.3719389999999976
0
LINE
8
Edge.Cuts
6
CONTINUOUS
10
87.3883589999999941
20
-85.3719389999999976
11
87.2855639999999937
21
-85.2254449999999935
0
LINE
8
Edge.Cuts
6
CONTINUOUS
10
87.2855639999999937
20
-85.2254449999999935
11
87.2098159999999893
21
-85.0633049999999997
0
LINE
8
Edge.Cuts
6
CONTINUOUS
10
87.2098159999999893
20
-85.0633049999999997
11
87.1634229999999945
21
-84.8904619999999994
0
LINE
8
Edge.Cuts
6
CONTINUOUS
10
87.1634229999999945
20
-84.8904619999999994
11
87.1477999999999895
21
-84.7121839999999935
0
LINE
8
Edge.Cuts
6
CONTINUOUS
10
87.1477999999999895
20
-84.7121839999999935
11
87.1477999999999895
21
-61.7993309999999951
0
LINE
8
Edge.Cuts
6
CONTINUOUS
10
87.1477999999999895
20
-61.7993309999999951
11
87.1477999999999895
21
-61.7993299999999977
0
LINE
8
Edge.Cuts
6
CONTINUOUS
10
87.1477999999999895
20
-61.7993299999999977
11
87.1633549999999957
21
-61.6213899999999981
0
LINE
8
Edge.Cuts
6
CONTINUOUS
10
87.1633549999999957
20
-61.6213899999999981
11
87.2095669999999927
21
-61.4488489999999956
0
LINE
8
Edge.Cuts
6
CONTINUOUS
10
87.2095669999999927
20
-61.4488489999999956
11
87.2850309999999894
21
-61.2869519999999994
0
LINE
8
Edge.Cuts
6
CONTINUOUS
10
87.2850309999999894
20
-61.2869519999999994
11
87.3874569999999977
21
-61.1406149999999968
0
LINE
8
Edge.Cuts
6
CONTINUOUS
10
87.3874569999999977
20
-61.1406149999999968
11
87.513733000000002
21
-61.0142829999999989
0
LINE
8
Edge.Cuts
6
CONTINUOUS
10
87.513733000000002
20
-61.0142829999999989
11
87.6600249999999903
21
-60.9117909999999938
0
LINE
8
Edge.Cuts
6
CONTINUOUS
10
87.6600249999999903
20
-60.9117909999999938
11
87.8218880000000013
21
-60.8362539999999967
0
LINE
8
Edge.Cuts
6
CONTINUOUS
10
87.8218880000000013
20
-60.8362539999999967
11
87.9944069999999954
21
-60.7899659999999997
0
LINE
8
Edge.Cuts
6
CONTINUOUS
10
87.9944069999999954
20
-60.7899659999999997
11
88.172341000000003
21
-60.7743309999999965
0
LINE
8
Edge.Cuts
6
CONTINUOUS
10
88.172341000000003
20
-60.7743309999999965
11
88.1723420000000004
21
-60.7743309999999965
0
LINE
8
Edge.Cuts
6
CONTINUOUS
10
88.1723420000000004
20
-60.7743309999999965
11
141.5759699999999839
21
-60.7504469999999941
0
LINE
8
Edge.Cuts
6
CONTINUOUS
10
141.5759699999999839
20
-60.7504469999999941
11
141.5759709999999814
21
-60.7504469999999941
0
LINE
8
Edge.Cuts
6
CONTINUOUS
10
141.5759709999999814
20
-60.7504469999999941
11
141.5759730000000047
21
-60.7504469999999941
0
LINE
8
Edge.Cuts
6
CONTINUOUS
10
141.5759730000000047
20
-60.7504469999999941
11
141.7538539999999898
21
-60.7659329999999969
0
LINE
8
Edge.Cuts
6
CONTINUOUS
10
141.5759929999999827
20
-60.8004459999999938
11
141.5759929999999827
21
-60.8004469999999984
0
LINE
8
Edge.Cuts
6
CONTINUOUS
10
141.5759929999999827
20
-60.8004469999999984
11
88.1723640000000017
21
-60.8243309999999937
0
LINE
8
Edge.Cuts
6
CONTINUOUS
10
88.1723640000000017
20
-60.8243309999999937
11
88.1723629999999901
21
-60.8243299999999962
0
LINE
8
Edge.Cuts
6
CONTINUOUS
10
88.1723629999999901
20
-60.8243299999999962
11
88.1723629999999901
21
-60.8243309999999937
0
LINE
8
Edge.Cuts
6
CONTINUOUS
10
88.1723629999999901
20
-60.8243309999999937
11
88.0870839999999902
21
-60.8243629999999982
0
LINE
8
Edge.Cuts
6
CONTINUOUS
10
88.0870839999999902
20
-60.8243629999999982
11
87.9191289999999981
21
-60.8540399999999977
0
LINE
8
Edge.Cuts
6
CONTINUOUS
10
87.9191289999999981
20
-60.8540399999999977
11
87.7588769999999982
21
-60.9124239999999944
0
LINE
8
Edge.Cuts
6
CONTINUOUS
10
87.7588769999999982
20
-60.9124239999999944
11
87.611194999999995
21
-60.9977439999999973
0
LINE
8
Edge.Cuts
6
CONTINUOUS
10
87.611194999999995
20
-60.9977439999999973
11
87.4805669999999935
21
-61.1074079999999995
0
LINE
8
Edge.Cuts
6
CONTINUOUS
10
87.4805669999999935
20
-61.1074079999999995
11
87.3709619999999916
21
-61.2380840000000006
0
LINE
8
Edge.Cuts
6
CONTINUOUS
10
87.3709619999999916
20
-61.2380840000000006
11
87.2857089999999971
21
-61.3858049999999977
0
LINE
8
Edge.Cuts
6
CONTINUOUS
10
87.2857089999999971
20
-61.3858049999999977
11
87.2273950000000013
21
-61.5460829999999959
0
LINE
8
Edge.Cuts
6
CONTINUOUS
10
87.2273950000000013
20
-61.5460829999999959
11
87.1977940000000018
21
-61.7140509999999978
0
LINE
8
Edge.Cuts
6
CONTINUOUS
10
87.1977940000000018
20
-61.7140509999999978
11
87.1978000000000009
21
-61.7993299999999977
0
LINE
8
Edge.Cuts
6
CONTINUOUS
10
87.1978000000000009
20
-61.7993299999999977
11
87.1978000000000009
21
-61.7993309999999951
0
LINE
8
Edge.Cuts
6
CONTINUOUS
10
87.1978000000000009
20
-61.7993309999999951
11
87.1978000000000009
21
-84.7121839999999935
0
LINE
8
Edge.Cuts
6
CONTINUOUS
10
87.1978000000000009
20
-84.7121839999999935
11
87.1978129999999965
21
-84.7976249999999965
0
LINE
8
Edge.Cuts
6
CONTINUOUS
10
87.1978129999999965
20
-84.7976249999999965
11
87.2275339999999915
21
-84.9659019999999998
0
LINE
8
Edge.Cuts
6
CONTINUOUS
10
87.2275339999999915
20
-84.9659019999999998
11
87.2860709999999926
21
-85.1264449999999897
0
LINE
8
Edge.Cuts
6
CONTINUOUS
10
87.2860709999999926
20
-85.1264449999999897
11
87.3716390000000018
21
-85.2743589999999898
0
LINE
8
Edge.Cuts
6
CONTINUOUS
10
87.3716390000000018
20
-85.2743589999999898
11
87.4816289999999981
21
-85.4051359999999988
0
LINE
8
Edge.Cuts
6
CONTINUOUS
10
87.4816289999999981
20
-85.4051359999999988
11
87.6126889999999889
21
-85.5147899999999908
0
LINE
8
Edge.Cuts
6
CONTINUOUS
10
87.6126889999999889
20
-85.5147899999999908
11
87.760823000000002
21
-85.5999769999999955
0
LINE
8
Edge.Cuts
6
CONTINUOUS
10
87.760823000000002
20
-85.5999769999999955
11
87.9215159999999969
21
-85.6580999999999904
0
LINE
8
Edge.Cuts
6
CONTINUOUS
10
87.9215159999999969
20
-85.6580999999999904
11
88.0898689999999931
21
-85.6873879999999986
0
LINE
8
Edge.Cuts
6
CONTINUOUS
10
88.0898689999999931
20
-85.6873879999999986
11
88.164560999999992
21
-85.6872070000000008
0
LINE
8
Edge.Cuts
6
CONTINUOUS
10
88.164560999999992
20
-85.6872070000000008
11
88.1657479999999936
21
-85.6860149999999976
0
LINE
8
Edge.Cuts
6
CONTINUOUS
10
88.1657479999999936
20
-85.6860149999999976
11
88.1753099999999961
21
-85.684086999999991
0
LINE
8
Edge.Cuts
6
CONTINUOUS
10
88.1753099999999961
20
-85.684086999999991
11
135.0266540000000077
21
-85.5635130000000004
0
LINE
8
Edge.Cuts
6
CONTINUOUS
10
135.0266540000000077
20
-85.5635130000000004
11
135.0266550000000052
21
-85.5635130000000004
0
LINE
8
Edge.Cuts
6
CONTINUOUS
10
135.0266550000000052
20
-85.5635130000000004
11
135.1577690000000018
21
-85.5632540000000006
0
LINE
8
Edge.Cuts
6
CONTINUOUS
10
135.1577690000000018
20
-85.5632540000000006
11
135.4176089999999988
21
-85.5279299999999978
0
LINE
8
Edge.Cuts
6
CONTINUOUS
10
135.4176089999999988
20
-85.5279299999999978
11
135.6704990000000066
21
-85.4585659999999905
0
LINE
8
Edge.Cuts
6
CONTINUOUS
10
135.6704990000000066
20
-85.4585659999999905
11
135.9119989999999802
21
-85.3563800000000015
0
LINE
8
Edge.Cuts
6
CONTINUOUS
10
135.9119989999999802
20
-85.3563800000000015
11
136.1378709999999899
21
-85.223165999999992
0
LINE
8
Edge.Cuts
6
CONTINUOUS
10
136.1378709999999899
20
-85.223165999999992
11
136.3441499999999849
21
-85.0612599999999901
0
LINE
8
Edge.Cuts
6
CONTINUOUS
10
136.3441499999999849
20
-85.0612599999999901
11
136.5272159999999815
21
-84.8735069999999894
0
LINE
8
Edge.Cuts
6
CONTINUOUS
10
136.5272159999999815
20
-84.8735069999999894
11
136.6838539999999966
21
-84.6631999999999891
0
LINE
8
Edge.Cuts
6
CONTINUOUS
10
136.6838539999999966
20
-84.6631999999999891
11
136.7475220000000036
21
-84.5485809999999987
0
LINE
8
Edge.Cuts
6
CONTINUOUS
10
136.7475220000000036
20
-84.5485809999999987
11
136.7478779999999858
21
-84.5482489999999984
0
LINE
8
Edge.Cuts
6
CONTINUOUS
10
136.7478779999999858
20
-84.5482489999999984
11
136.7481669999999951
21
-84.5474880000000013
0
LINE
8
Edge.Cuts
6
CONTINUOUS
10
136.7481669999999951
20
-84.5474880000000013
11
142.3211169999999868
21
-75.6260209999999944
0
LINE
8
Edge.Cuts
6
CONTINUOUS
10
142.3211169999999868
20
-75.6260209999999944
11
142.369702999999987
21
-75.5386290000000002
0
LINE
8
Edge.Cuts
6
CONTINUOUS
10
142.369702999999987
20
-75.5386290000000002
11
142.449150000000003
21
-75.3537249999999972
0
LINE
8
Edge.Cuts
6
CONTINUOUS
10
142.449150000000003
20
-75.3537249999999972
11
142.5093939999999861
21
-75.1617030000000028
0
LINE
8
Edge.Cuts
6
CONTINUOUS
10
142.5093939999999861
20
-75.1617030000000028
11
142.5498079999999845
21
-74.9645529999999951
0
LINE
8
Edge.Cuts
6
CONTINUOUS
10
142.5498079999999845
20
-74.9645529999999951
11
142.5699759999999969
21
-74.7643169999999913
0
LINE
8
Edge.Cuts
6
CONTINUOUS
10
142.5699759999999969
20
-74.7643169999999913
11
142.5698559999999873
21
-74.6636919999999975
0
LINE
8
Edge.Cuts
6
CONTINUOUS
10
142.5698559999999873
20
-74.6636919999999975
11
142.5514279999999872
21
-61.774052999999995
0
LINE
8
Edge.Cuts
6
CONTINUOUS
10
142.5514279999999872
20
-61.774052999999995
11
142.5513049999999851
21
-61.6888079999999945
0
LINE
8
Edge.Cuts
6
CONTINUOUS
10
142.5513049999999851
20
-61.6888079999999945
11
142.5214670000000012
21
-61.5209469999999996
0
LINE
8
Edge.Cuts
6
CONTINUOUS
10
142.5214670000000012
20
-61.5209469999999996
11
142.4629529999999988
21
-61.3608089999999962
0
LINE
8
Edge.Cuts
6
CONTINUOUS
10
142.4629529999999988
20
-61.3608089999999962
11
142.377539999999982
21
-61.2132539999999992
0
LINE
8
Edge.Cuts
6
CONTINUOUS
10
142.377539999999982
20
-61.2132539999999992
11
142.2678180000000054
21
-61.0827589999999958
0
LINE
8
Edge.Cuts
6
CONTINUOUS
10
142.2678180000000054
20
-61.0827589999999958
11
142.1371169999999893
21
-60.9732819999999975
0
LINE
8
Edge.Cuts
6
CONTINUOUS
10
142.1371169999999893
20
-60.9732819999999975
11
141.9894019999999841
21
-60.888145999999999
0
LINE
8
Edge.Cuts
6
CONTINUOUS
10
141.9894019999999841
20
-60.888145999999999
11
141.8291549999999859
21
-60.8299329999999969
0
LINE
8
Edge.Cuts
6
CONTINUOUS
10
141.8291549999999859
20
-60.8299329999999969
11
141.6612379999999973
21
-60.8004099999999994
0
LINE
8
Edge.Cuts
6
CONTINUOUS
10
141.6612379999999973
20
-60.8004099999999994
11
141.5759929999999827
21
-60.8004459999999938
  0
ENDSEC
  0
EOF
