  0
SECTION
  2
HEADER
  9
$ANGBASE
  50
0.0
  9
$ANGDIR
  70
1
  9
$MEASUREMENT
  70
1
  9
$INSUNITS
  70
4
  0
ENDSEC
  0
SECTION
  2
TABLES
  0
TABLE
  2
LTYPE
  70
4
  0
LTYPE
  5
40F
  2
CONTINUOUS
  70
0
  3
Solid line
  72
65
  73
0
  40
0.0
  0
LTYPE
  5
410
  2
DASHDOT
 70
0
  3
Dash Dot ____ _ ____ _
 72
65
 73
4
 40
2.0
 49
1.25
 49
-0.25
 49
0.25
 49
-0.25
  0
LTYPE
  5
411
  2
DASHED
 70
0
  3
Dashed __ __ __ __ __
 72
65
 73
2
 40
0.75
 49
0.5
 49
-0.25
  0
LTYPE
  5
43B
  2
DOTTED
 70
0
  3
Dotted .  .  .  .
 72
65
 73
2
 40
0.2
 49
0.0
 49
-0.2
  0
ENDTAB
  0
TABLE
  2
STYLE
  70
4
  0
STYLE
  2
KICAD
  70
0
  40
0
  41
1
  42
1
  50
0
  71
0
  3
isocp.shx
  0
STYLE
  2
KICADB
  70
0
  40
0
  41
1
  42
1
  50
0
  71
0
  3
isocp.shx
  0
STYLE
  2
KICADI
  70
0
  40
0
  41
1
  42
1
  50
15
  71
0
  3
isocp.shx
  0
STYLE
  2
KICADBI
  70
0
  40
0
  41
1
  42
1
  50
15
  71
0
  3
isocp.shx
  0
ENDTAB
  0
TABLE
  2
LAYER
  70
8
  0
LAYER
  2
F.Cu
  70
0
  62
13
  420
13120564
  6
CONTINUOUS
  0
LAYER
  2
B.Cu
  70
0
  62
153
  420
5078980
  6
CONTINUOUS
  0
LAYER
  2
F.Paste
  70
0
  62
253
  420
11837594
  6
CONTINUOUS
  0
LAYER
  2
B.Paste
  70
0
  62
132
  420
49858
  6
CONTINUOUS
  0
LAYER
  2
B.Silkscreen
  70
0
  62
31
  420
15250087
  6
CONTINUOUS
  0
LAYER
  2
F.Mask
  70
0
  62
201
  420
14181631
  6
CONTINUOUS
  0
LAYER
  2
B.Mask
  70
0
  62
4
  420
196590
  6
CONTINUOUS
  0
LAYER
  2
Edge.Cuts
  70
0
  62
254
  420
13685453
  6
CONTINUOUS
  0
ENDTAB
  0
ENDSEC
  0
SECTION
  2
ENTITIES
0
LINE
8
B.Mask
6
CONTINUOUS
10
100.89161
20
-82.9656719999999979
11
101.0272569999999916
21
-83.0439879999999988
0
LINE
8
B.Mask
6
CONTINUOUS
10
101.0272569999999916
20
-83.0439879999999988
11
101.1380119999999891
21
-83.1547429999999963
0
LINE
8
B.Mask
6
CONTINUOUS
10
101.1380119999999891
20
-83.1547429999999963
11
101.2163279999999901
21
-83.2903900000000021
0
LINE
8
B.Mask
6
CONTINUOUS
10
101.2163279999999901
20
-83.2903900000000021
11
101.2568669999999997
21
-83.4416839999999951
0
LINE
8
B.Mask
6
CONTINUOUS
10
101.2568669999999997
20
-83.4416839999999951
11
101.2620000000000005
21
-83.519999999999996
0
LINE
8
B.Mask
6
CONTINUOUS
10
101.2620000000000005
20
-83.519999999999996
11
101.2620000000000005
21
-84.1199999999999903
0
LINE
8
B.Mask
6
CONTINUOUS
10
101.2620000000000005
20
-84.1199999999999903
11
101.2568669999999997
21
-84.1983159999999913
0
LINE
8
B.Mask
6
CONTINUOUS
10
101.2568669999999997
20
-84.1983159999999913
11
101.2163279999999901
21
-84.3496099999999984
0
LINE
8
B.Mask
6
CONTINUOUS
10
101.2163279999999901
20
-84.3496099999999984
11
101.1380119999999891
21
-84.4852569999999901
0
LINE
8
B.Mask
6
CONTINUOUS
10
101.1380119999999891
20
-84.4852569999999901
11
101.0272569999999916
21
-84.5960120000000018
0
LINE
8
B.Mask
6
CONTINUOUS
10
101.0272569999999916
20
-84.5960120000000018
11
100.89161
21
-84.6743280000000027
0
LINE
8
B.Mask
6
CONTINUOUS
10
100.89161
20
-84.6743280000000027
11
100.7403159999999929
21
-84.7148669999999981
0
LINE
8
B.Mask
6
CONTINUOUS
10
100.7403159999999929
20
-84.7148669999999981
11
100.583683999999991
21
-84.7148669999999981
0
LINE
8
B.Mask
6
CONTINUOUS
10
100.583683999999991
20
-84.7148669999999981
11
100.4323899999999981
21
-84.6743280000000027
0
LINE
8
B.Mask
6
CONTINUOUS
10
100.4323899999999981
20
-84.6743280000000027
11
100.2967429999999922
21
-84.5960120000000018
0
LINE
8
B.Mask
6
CONTINUOUS
10
100.2967429999999922
20
-84.5960120000000018
11
100.1859879999999947
21
-84.4852569999999901
0
LINE
8
B.Mask
6
CONTINUOUS
10
100.1859879999999947
20
-84.4852569999999901
11
100.1076719999999938
21
-84.3496099999999984
0
LINE
8
B.Mask
6
CONTINUOUS
10
100.1076719999999938
20
-84.3496099999999984
11
100.0671329999999983
21
-84.1983159999999913
0
LINE
8
B.Mask
6
CONTINUOUS
10
100.0671329999999983
20
-84.1983159999999913
11
100.0619999999999976
21
-84.1199999999999903
0
LINE
8
B.Mask
6
CONTINUOUS
10
100.0619999999999976
20
-84.1199999999999903
11
100.0619999999999976
21
-83.519999999999996
0
LINE
8
B.Mask
6
CONTINUOUS
10
100.0619999999999976
20
-83.519999999999996
11
100.0671329999999983
21
-83.4416839999999951
0
LINE
8
B.Mask
6
CONTINUOUS
10
100.0671329999999983
20
-83.4416839999999951
11
100.1076719999999938
21
-83.2903900000000021
0
LINE
8
B.Mask
6
CONTINUOUS
10
100.1076719999999938
20
-83.2903900000000021
11
100.1859879999999947
21
-83.1547429999999963
0
LINE
8
B.Mask
6
CONTINUOUS
10
100.1859879999999947
20
-83.1547429999999963
11
100.2967429999999922
21
-83.0439879999999988
0
LINE
8
B.Mask
6
CONTINUOUS
10
100.2967429999999922
20
-83.0439879999999988
11
100.4323899999999981
21
-82.9656719999999979
0
LINE
8
B.Mask
6
CONTINUOUS
10
100.4323899999999981
20
-82.9656719999999979
11
100.583683999999991
21
-82.9251330000000024
0
LINE
8
B.Mask
6
CONTINUOUS
10
100.583683999999991
20
-82.9251330000000024
11
100.7403159999999929
21
-82.9251330000000024
0
LINE
8
B.Mask
6
CONTINUOUS
10
100.7403159999999929
20
-82.9251330000000024
11
100.89161
21
-82.9656719999999979
0
LINE
8
B.Mask
6
CONTINUOUS
10
109.5316100000000006
20
-82.9656719999999979
11
109.6672569999999922
21
-83.0439879999999988
0
LINE
8
B.Mask
6
CONTINUOUS
10
109.6672569999999922
20
-83.0439879999999988
11
109.7780119999999897
21
-83.1547429999999963
0
LINE
8
B.Mask
6
CONTINUOUS
10
109.7780119999999897
20
-83.1547429999999963
11
109.8563279999999907
21
-83.2903900000000021
0
LINE
8
B.Mask
6
CONTINUOUS
10
109.8563279999999907
20
-83.2903900000000021
11
109.8968670000000003
21
-83.4416839999999951
0
LINE
8
B.Mask
6
CONTINUOUS
10
109.8968670000000003
20
-83.4416839999999951
11
109.902000000000001
21
-83.519999999999996
0
LINE
8
B.Mask
6
CONTINUOUS
10
109.902000000000001
20
-83.519999999999996
11
109.902000000000001
21
-84.1199999999999903
0
LINE
8
B.Mask
6
CONTINUOUS
10
109.902000000000001
20
-84.1199999999999903
11
109.8968670000000003
21
-84.1983159999999913
0
LINE
8
B.Mask
6
CONTINUOUS
10
109.8968670000000003
20
-84.1983159999999913
11
109.8563279999999907
21
-84.3496099999999984
0
LINE
8
B.Mask
6
CONTINUOUS
10
109.8563279999999907
20
-84.3496099999999984
11
109.7780119999999897
21
-84.4852569999999901
0
LINE
8
B.Mask
6
CONTINUOUS
10
109.7780119999999897
20
-84.4852569999999901
11
109.6672569999999922
21
-84.5960120000000018
0
LINE
8
B.Mask
6
CONTINUOUS
10
109.6672569999999922
20
-84.5960120000000018
11
109.5316100000000006
21
-84.6743280000000027
0
LINE
8
B.Mask
6
CONTINUOUS
10
109.5316100000000006
20
-84.6743280000000027
11
109.3803159999999934
21
-84.7148669999999981
0
LINE
8
B.Mask
6
CONTINUOUS
10
109.3803159999999934
20
-84.7148669999999981
11
109.2236839999999916
21
-84.7148669999999981
0
LINE
8
B.Mask
6
CONTINUOUS
10
109.2236839999999916
20
-84.7148669999999981
11
109.0723899999999986
21
-84.6743280000000027
0
LINE
8
B.Mask
6
CONTINUOUS
10
109.0723899999999986
20
-84.6743280000000027
11
108.9367429999999928
21
-84.5960120000000018
0
LINE
8
B.Mask
6
CONTINUOUS
10
108.9367429999999928
20
-84.5960120000000018
11
108.8259879999999953
21
-84.4852569999999901
0
LINE
8
B.Mask
6
CONTINUOUS
10
108.8259879999999953
20
-84.4852569999999901
11
108.7476719999999943
21
-84.3496099999999984
0
LINE
8
B.Mask
6
CONTINUOUS
10
108.7476719999999943
20
-84.3496099999999984
11
108.7071329999999989
21
-84.1983159999999913
0
LINE
8
B.Mask
6
CONTINUOUS
10
108.7071329999999989
20
-84.1983159999999913
11
108.7019999999999982
21
-84.1199999999999903
0
LINE
8
B.Mask
6
CONTINUOUS
10
108.7019999999999982
20
-84.1199999999999903
11
108.7019999999999982
21
-83.519999999999996
0
LINE
8
B.Mask
6
CONTINUOUS
10
108.7019999999999982
20
-83.519999999999996
11
108.7071329999999989
21
-83.4416839999999951
0
LINE
8
B.Mask
6
CONTINUOUS
10
108.7071329999999989
20
-83.4416839999999951
11
108.7476719999999943
21
-83.2903900000000021
0
LINE
8
B.Mask
6
CONTINUOUS
10
108.7476719999999943
20
-83.2903900000000021
11
108.8259879999999953
21
-83.1547429999999963
0
LINE
8
B.Mask
6
CONTINUOUS
10
108.8259879999999953
20
-83.1547429999999963
11
108.9367429999999928
21
-83.0439879999999988
0
LINE
8
B.Mask
6
CONTINUOUS
10
108.9367429999999928
20
-83.0439879999999988
11
109.0723899999999986
21
-82.9656719999999979
0
LINE
8
B.Mask
6
CONTINUOUS
10
109.0723899999999986
20
-82.9656719999999979
11
109.2236839999999916
21
-82.9251330000000024
0
LINE
8
B.Mask
6
CONTINUOUS
10
109.2236839999999916
20
-82.9251330000000024
11
109.3803159999999934
21
-82.9251330000000024
0
LINE
8
B.Mask
6
CONTINUOUS
10
109.3803159999999934
20
-82.9251330000000024
11
109.5316100000000006
21
-82.9656719999999979
0
LINE
8
B.Mask
6
CONTINUOUS
10
111.7316099999999892
20
-82.9656719999999979
11
111.8672569999999951
21
-83.0439879999999988
0
LINE
8
B.Mask
6
CONTINUOUS
10
111.8672569999999951
20
-83.0439879999999988
11
111.9780119999999926
21
-83.1547429999999963
0
LINE
8
B.Mask
6
CONTINUOUS
10
111.9780119999999926
20
-83.1547429999999963
11
112.0563279999999935
21
-83.2903900000000021
0
LINE
8
B.Mask
6
CONTINUOUS
10
112.0563279999999935
20
-83.2903900000000021
11
112.0968669999999889
21
-83.4416839999999951
0
LINE
8
B.Mask
6
CONTINUOUS
10
112.0968669999999889
20
-83.4416839999999951
11
112.1019999999999897
21
-83.519999999999996
0
LINE
8
B.Mask
6
CONTINUOUS
10
112.1019999999999897
20
-83.519999999999996
11
112.1019999999999897
21
-84.1199999999999903
0
LINE
8
B.Mask
6
CONTINUOUS
10
112.1019999999999897
20
-84.1199999999999903
11
112.0968669999999889
21
-84.1983159999999913
0
LINE
8
B.Mask
6
CONTINUOUS
10
112.0968669999999889
20
-84.1983159999999913
11
112.0563279999999935
21
-84.3496099999999984
0
LINE
8
B.Mask
6
CONTINUOUS
10
112.0563279999999935
20
-84.3496099999999984
11
111.9780119999999926
21
-84.4852569999999901
0
LINE
8
B.Mask
6
CONTINUOUS
10
111.9780119999999926
20
-84.4852569999999901
11
111.8672569999999951
21
-84.5960120000000018
0
LINE
8
B.Mask
6
CONTINUOUS
10
111.8672569999999951
20
-84.5960120000000018
11
111.7316099999999892
21
-84.6743280000000027
0
LINE
8
B.Mask
6
CONTINUOUS
10
111.7316099999999892
20
-84.6743280000000027
11
111.5803159999999963
21
-84.7148669999999981
0
LINE
8
B.Mask
6
CONTINUOUS
10
111.5803159999999963
20
-84.7148669999999981
11
111.4236839999999944
21
-84.7148669999999981
0
LINE
8
B.Mask
6
CONTINUOUS
10
111.4236839999999944
20
-84.7148669999999981
11
111.2723900000000015
21
-84.6743280000000027
0
LINE
8
B.Mask
6
CONTINUOUS
10
111.2723900000000015
20
-84.6743280000000027
11
111.1367429999999956
21
-84.5960120000000018
0
LINE
8
B.Mask
6
CONTINUOUS
10
111.1367429999999956
20
-84.5960120000000018
11
111.0259879999999981
21
-84.4852569999999901
0
LINE
8
B.Mask
6
CONTINUOUS
10
111.0259879999999981
20
-84.4852569999999901
11
110.9476719999999972
21
-84.3496099999999984
0
LINE
8
B.Mask
6
CONTINUOUS
10
110.9476719999999972
20
-84.3496099999999984
11
110.9071330000000017
21
-84.1983159999999913
0
LINE
8
B.Mask
6
CONTINUOUS
10
110.9071330000000017
20
-84.1983159999999913
11
110.902000000000001
21
-84.1199999999999903
0
LINE
8
B.Mask
6
CONTINUOUS
10
110.902000000000001
20
-84.1199999999999903
11
110.902000000000001
21
-83.519999999999996
0
LINE
8
B.Mask
6
CONTINUOUS
10
110.902000000000001
20
-83.519999999999996
11
110.9071330000000017
21
-83.4416839999999951
0
LINE
8
B.Mask
6
CONTINUOUS
10
110.9071330000000017
20
-83.4416839999999951
11
110.9476719999999972
21
-83.2903900000000021
0
LINE
8
B.Mask
6
CONTINUOUS
10
110.9476719999999972
20
-83.2903900000000021
11
111.0259879999999981
21
-83.1547429999999963
0
LINE
8
B.Mask
6
CONTINUOUS
10
111.0259879999999981
20
-83.1547429999999963
11
111.1367429999999956
21
-83.0439879999999988
0
LINE
8
B.Mask
6
CONTINUOUS
10
111.1367429999999956
20
-83.0439879999999988
11
111.2723900000000015
21
-82.9656719999999979
0
LINE
8
B.Mask
6
CONTINUOUS
10
111.2723900000000015
20
-82.9656719999999979
11
111.4236839999999944
21
-82.9251330000000024
0
LINE
8
B.Mask
6
CONTINUOUS
10
111.4236839999999944
20
-82.9251330000000024
11
111.5803159999999963
21
-82.9251330000000024
0
LINE
8
B.Mask
6
CONTINUOUS
10
111.5803159999999963
20
-82.9251330000000024
11
111.7316099999999892
21
-82.9656719999999979
0
LINE
8
B.Mask
6
CONTINUOUS
10
120.3716099999999898
20
-82.9656719999999979
11
120.5072569999999956
21
-83.0439879999999988
0
LINE
8
B.Mask
6
CONTINUOUS
10
120.5072569999999956
20
-83.0439879999999988
11
120.6180119999999931
21
-83.1547429999999963
0
LINE
8
B.Mask
6
CONTINUOUS
10
120.6180119999999931
20
-83.1547429999999963
11
120.6963279999999941
21
-83.2903900000000021
0
LINE
8
B.Mask
6
CONTINUOUS
10
120.6963279999999941
20
-83.2903900000000021
11
120.7368669999999895
21
-83.4416839999999951
0
LINE
8
B.Mask
6
CONTINUOUS
10
120.7368669999999895
20
-83.4416839999999951
11
120.7419999999999902
21
-83.519999999999996
0
LINE
8
B.Mask
6
CONTINUOUS
10
120.7419999999999902
20
-83.519999999999996
11
120.7419999999999902
21
-84.1199999999999903
0
LINE
8
B.Mask
6
CONTINUOUS
10
120.7419999999999902
20
-84.1199999999999903
11
120.7368669999999895
21
-84.1983159999999913
0
LINE
8
B.Mask
6
CONTINUOUS
10
120.7368669999999895
20
-84.1983159999999913
11
120.6963279999999941
21
-84.3496099999999984
0
LINE
8
B.Mask
6
CONTINUOUS
10
120.6963279999999941
20
-84.3496099999999984
11
120.6180119999999931
21
-84.4852569999999901
0
LINE
8
B.Mask
6
CONTINUOUS
10
120.6180119999999931
20
-84.4852569999999901
11
120.5072569999999956
21
-84.5960120000000018
0
LINE
8
B.Mask
6
CONTINUOUS
10
120.5072569999999956
20
-84.5960120000000018
11
120.3716099999999898
21
-84.6743280000000027
0
LINE
8
B.Mask
6
CONTINUOUS
10
120.3716099999999898
20
-84.6743280000000027
11
120.2203159999999968
21
-84.7148669999999981
0
LINE
8
B.Mask
6
CONTINUOUS
10
120.2203159999999968
20
-84.7148669999999981
11
120.063683999999995
21
-84.7148669999999981
0
LINE
8
B.Mask
6
CONTINUOUS
10
120.063683999999995
20
-84.7148669999999981
11
119.9123899999999878
21
-84.6743280000000027
0
LINE
8
B.Mask
6
CONTINUOUS
10
119.9123899999999878
20
-84.6743280000000027
11
119.7767429999999962
21
-84.5960120000000018
0
LINE
8
B.Mask
6
CONTINUOUS
10
119.7767429999999962
20
-84.5960120000000018
11
119.6659879999999987
21
-84.4852569999999901
0
LINE
8
B.Mask
6
CONTINUOUS
10
119.6659879999999987
20
-84.4852569999999901
11
119.5876719999999978
21
-84.3496099999999984
0
LINE
8
B.Mask
6
CONTINUOUS
10
119.5876719999999978
20
-84.3496099999999984
11
119.5471329999999881
21
-84.1983159999999913
0
LINE
8
B.Mask
6
CONTINUOUS
10
119.5471329999999881
20
-84.1983159999999913
11
119.5420000000000016
21
-84.1199999999999903
0
LINE
8
B.Mask
6
CONTINUOUS
10
119.5420000000000016
20
-84.1199999999999903
11
119.5420000000000016
21
-83.519999999999996
0
LINE
8
B.Mask
6
CONTINUOUS
10
119.5420000000000016
20
-83.519999999999996
11
119.5471329999999881
21
-83.4416839999999951
0
LINE
8
B.Mask
6
CONTINUOUS
10
119.5471329999999881
20
-83.4416839999999951
11
119.5876719999999978
21
-83.2903900000000021
0
LINE
8
B.Mask
6
CONTINUOUS
10
119.5876719999999978
20
-83.2903900000000021
11
119.6659879999999987
21
-83.1547429999999963
0
LINE
8
B.Mask
6
CONTINUOUS
10
119.6659879999999987
20
-83.1547429999999963
11
119.7767429999999962
21
-83.0439879999999988
0
LINE
8
B.Mask
6
CONTINUOUS
10
119.7767429999999962
20
-83.0439879999999988
11
119.9123899999999878
21
-82.9656719999999979
0
LINE
8
B.Mask
6
CONTINUOUS
10
119.9123899999999878
20
-82.9656719999999979
11
120.063683999999995
21
-82.9251330000000024
0
LINE
8
B.Mask
6
CONTINUOUS
10
120.063683999999995
20
-82.9251330000000024
11
120.2203159999999968
21
-82.9251330000000024
0
LINE
8
B.Mask
6
CONTINUOUS
10
120.2203159999999968
20
-82.9251330000000024
11
120.3716099999999898
21
-82.9656719999999979
0
LINE
8
B.Mask
6
CONTINUOUS
10
122.4576099999999883
20
-81.6356719999999996
11
122.5932569999999942
21
-81.7139880000000005
0
LINE
8
B.Mask
6
CONTINUOUS
10
122.5932569999999942
20
-81.7139880000000005
11
122.7040119999999916
21
-81.824742999999998
0
LINE
8
B.Mask
6
CONTINUOUS
10
122.7040119999999916
20
-81.824742999999998
11
122.7823279999999926
21
-81.9603899999999896
0
LINE
8
B.Mask
6
CONTINUOUS
10
122.7823279999999926
20
-81.9603899999999896
11
122.822866999999988
21
-82.1116839999999968
0
LINE
8
B.Mask
6
CONTINUOUS
10
122.822866999999988
20
-82.1116839999999968
11
122.8279999999999887
21
-82.1899999999999977
0
LINE
8
B.Mask
6
CONTINUOUS
10
122.8279999999999887
20
-82.1899999999999977
11
122.8279999999999887
21
-84.0899999999999892
0
LINE
8
B.Mask
6
CONTINUOUS
10
122.8279999999999887
20
-84.0899999999999892
11
122.822866999999988
21
-84.1683159999999901
0
LINE
8
B.Mask
6
CONTINUOUS
10
122.822866999999988
20
-84.1683159999999901
11
122.7823279999999926
21
-84.3196099999999973
0
LINE
8
B.Mask
6
CONTINUOUS
10
122.7823279999999926
20
-84.3196099999999973
11
122.7040119999999916
21
-84.4552570000000031
0
LINE
8
B.Mask
6
CONTINUOUS
10
122.7040119999999916
20
-84.4552570000000031
11
122.5932569999999942
21
-84.5660120000000006
0
LINE
8
B.Mask
6
CONTINUOUS
10
122.5932569999999942
20
-84.5660120000000006
11
122.4576099999999883
21
-84.6443280000000016
0
LINE
8
B.Mask
6
CONTINUOUS
10
122.4576099999999883
20
-84.6443280000000016
11
122.3063159999999954
21
-84.684866999999997
0
LINE
8
B.Mask
6
CONTINUOUS
10
122.3063159999999954
20
-84.684866999999997
11
122.1496839999999935
21
-84.684866999999997
0
LINE
8
B.Mask
6
CONTINUOUS
10
122.1496839999999935
20
-84.684866999999997
11
121.9983900000000006
21
-84.6443280000000016
0
LINE
8
B.Mask
6
CONTINUOUS
10
121.9983900000000006
20
-84.6443280000000016
11
121.8627429999999947
21
-84.5660120000000006
0
LINE
8
B.Mask
6
CONTINUOUS
10
121.8627429999999947
20
-84.5660120000000006
11
121.7519879999999972
21
-84.4552570000000031
0
LINE
8
B.Mask
6
CONTINUOUS
10
121.7519879999999972
20
-84.4552570000000031
11
121.6736719999999963
21
-84.3196099999999973
0
LINE
8
B.Mask
6
CONTINUOUS
10
121.6736719999999963
20
-84.3196099999999973
11
121.6331330000000008
21
-84.1683159999999901
0
LINE
8
B.Mask
6
CONTINUOUS
10
121.6331330000000008
20
-84.1683159999999901
11
121.6280000000000001
21
-84.0899999999999892
0
LINE
8
B.Mask
6
CONTINUOUS
10
121.6280000000000001
20
-84.0899999999999892
11
121.6280000000000001
21
-82.1899999999999977
0
LINE
8
B.Mask
6
CONTINUOUS
10
121.6280000000000001
20
-82.1899999999999977
11
121.6331330000000008
21
-82.1116839999999968
0
LINE
8
B.Mask
6
CONTINUOUS
10
121.6331330000000008
20
-82.1116839999999968
11
121.6736719999999963
21
-81.9603899999999896
0
LINE
8
B.Mask
6
CONTINUOUS
10
121.6736719999999963
20
-81.9603899999999896
11
121.7519879999999972
21
-81.824742999999998
0
LINE
8
B.Mask
6
CONTINUOUS
10
121.7519879999999972
20
-81.824742999999998
11
121.8627429999999947
21
-81.7139880000000005
0
LINE
8
B.Mask
6
CONTINUOUS
10
121.8627429999999947
20
-81.7139880000000005
11
121.9983900000000006
21
-81.6356719999999996
0
LINE
8
B.Mask
6
CONTINUOUS
10
121.9983900000000006
20
-81.6356719999999996
11
122.1496839999999935
21
-81.5951329999999899
0
LINE
8
B.Mask
6
CONTINUOUS
10
122.1496839999999935
20
-81.5951329999999899
11
122.3063159999999954
21
-81.5951329999999899
0
LINE
8
B.Mask
6
CONTINUOUS
10
122.3063159999999954
20
-81.5951329999999899
11
122.4576099999999883
21
-81.6356719999999996
0
LINE
8
B.Mask
6
CONTINUOUS
10
135.357609999999994
20
-81.6356719999999996
11
135.4932569999999998
21
-81.7139880000000005
0
LINE
8
B.Mask
6
CONTINUOUS
10
135.4932569999999998
20
-81.7139880000000005
11
135.6040119999999831
21
-81.824742999999998
0
LINE
8
B.Mask
6
CONTINUOUS
10
135.6040119999999831
20
-81.824742999999998
11
135.6823279999999841
21
-81.9603899999999896
0
LINE
8
B.Mask
6
CONTINUOUS
10
135.6823279999999841
20
-81.9603899999999896
11
135.7228670000000079
21
-82.1116839999999968
0
LINE
8
B.Mask
6
CONTINUOUS
10
135.7228670000000079
20
-82.1116839999999968
11
135.7279999999999802
21
-82.1899999999999977
0
LINE
8
B.Mask
6
CONTINUOUS
10
135.7279999999999802
20
-82.1899999999999977
11
135.7279999999999802
21
-84.0899999999999892
0
LINE
8
B.Mask
6
CONTINUOUS
10
135.7279999999999802
20
-84.0899999999999892
11
135.7228670000000079
21
-84.1683159999999901
0
LINE
8
B.Mask
6
CONTINUOUS
10
135.7228670000000079
20
-84.1683159999999901
11
135.6823279999999841
21
-84.3196099999999973
0
LINE
8
B.Mask
6
CONTINUOUS
10
135.6823279999999841
20
-84.3196099999999973
11
135.6040119999999831
21
-84.4552570000000031
0
LINE
8
B.Mask
6
CONTINUOUS
10
135.6040119999999831
20
-84.4552570000000031
11
135.4932569999999998
21
-84.5660120000000006
0
LINE
8
B.Mask
6
CONTINUOUS
10
135.4932569999999998
20
-84.5660120000000006
11
135.357609999999994
21
-84.6443280000000016
0
LINE
8
B.Mask
6
CONTINUOUS
10
135.357609999999994
20
-84.6443280000000016
11
135.2063159999999868
21
-84.684866999999997
0
LINE
8
B.Mask
6
CONTINUOUS
10
135.2063159999999868
20
-84.684866999999997
11
135.049683999999985
21
-84.684866999999997
0
LINE
8
B.Mask
6
CONTINUOUS
10
135.049683999999985
20
-84.684866999999997
11
134.8983900000000062
21
-84.6443280000000016
0
LINE
8
B.Mask
6
CONTINUOUS
10
134.8983900000000062
20
-84.6443280000000016
11
134.7627430000000004
21
-84.5660120000000006
0
LINE
8
B.Mask
6
CONTINUOUS
10
134.7627430000000004
20
-84.5660120000000006
11
134.6519879999999887
21
-84.4552570000000031
0
LINE
8
B.Mask
6
CONTINUOUS
10
134.6519879999999887
20
-84.4552570000000031
11
134.5736719999999877
21
-84.3196099999999973
0
LINE
8
B.Mask
6
CONTINUOUS
10
134.5736719999999877
20
-84.3196099999999973
11
134.5331329999999923
21
-84.1683159999999901
0
LINE
8
B.Mask
6
CONTINUOUS
10
134.5331329999999923
20
-84.1683159999999901
11
134.5279999999999916
21
-84.0899999999999892
0
LINE
8
B.Mask
6
CONTINUOUS
10
134.5279999999999916
20
-84.0899999999999892
11
134.5279999999999916
21
-82.1899999999999977
0
LINE
8
B.Mask
6
CONTINUOUS
10
134.5279999999999916
20
-82.1899999999999977
11
134.5331329999999923
21
-82.1116839999999968
0
LINE
8
B.Mask
6
CONTINUOUS
10
134.5331329999999923
20
-82.1116839999999968
11
134.5736719999999877
21
-81.9603899999999896
0
LINE
8
B.Mask
6
CONTINUOUS
10
134.5736719999999877
20
-81.9603899999999896
11
134.6519879999999887
21
-81.824742999999998
0
LINE
8
B.Mask
6
CONTINUOUS
10
134.6519879999999887
20
-81.824742999999998
11
134.7627430000000004
21
-81.7139880000000005
0
LINE
8
B.Mask
6
CONTINUOUS
10
134.7627430000000004
20
-81.7139880000000005
11
134.8983900000000062
21
-81.6356719999999996
0
LINE
8
B.Mask
6
CONTINUOUS
10
134.8983900000000062
20
-81.6356719999999996
11
135.049683999999985
21
-81.5951329999999899
0
LINE
8
B.Mask
6
CONTINUOUS
10
135.049683999999985
20
-81.5951329999999899
11
135.2063159999999868
21
-81.5951329999999899
0
LINE
8
B.Mask
6
CONTINUOUS
10
135.2063159999999868
20
-81.5951329999999899
11
135.357609999999994
21
-81.6356719999999996
0
LINE
8
B.Mask
6
CONTINUOUS
10
97.1069899999999961
20
-82.0391929999999974
11
97.2711520000000007
21
-82.0925330000000031
0
LINE
8
B.Mask
6
CONTINUOUS
10
97.2711520000000007
20
-82.0925330000000031
11
97.4249480000000005
21
-82.170895999999999
0
LINE
8
B.Mask
6
CONTINUOUS
10
97.4249480000000005
20
-82.170895999999999
11
97.5645930000000021
21
-82.2723529999999954
0
LINE
8
B.Mask
6
CONTINUOUS
10
97.5645930000000021
20
-82.2723529999999954
11
97.6866469999999936
21
-82.3944070000000011
0
LINE
8
B.Mask
6
CONTINUOUS
10
97.6866469999999936
20
-82.3944070000000011
11
97.7881039999999899
21
-82.5340520000000026
0
LINE
8
B.Mask
6
CONTINUOUS
10
97.7881039999999899
20
-82.5340520000000026
11
97.8664670000000001
21
-82.6878480000000025
0
LINE
8
B.Mask
6
CONTINUOUS
10
97.8664670000000001
20
-82.6878480000000025
11
97.9198069999999916
21
-82.8520099999999928
0
LINE
8
B.Mask
6
CONTINUOUS
10
97.9198069999999916
20
-82.8520099999999928
11
97.9468090000000018
21
-83.0224949999999922
0
LINE
8
B.Mask
6
CONTINUOUS
10
97.9468090000000018
20
-83.0224949999999922
11
97.9468090000000018
21
-83.1951049999999981
0
LINE
8
B.Mask
6
CONTINUOUS
10
97.9468090000000018
20
-83.1951049999999981
11
97.9198069999999916
21
-83.3655899999999974
0
LINE
8
B.Mask
6
CONTINUOUS
10
97.9198069999999916
20
-83.3655899999999974
11
97.8664670000000001
21
-83.529752000000002
0
LINE
8
B.Mask
6
CONTINUOUS
10
97.8664670000000001
20
-83.529752000000002
11
97.7881039999999899
21
-83.6835480000000018
0
LINE
8
B.Mask
6
CONTINUOUS
10
97.7881039999999899
20
-83.6835480000000018
11
97.6866469999999936
21
-83.8231929999999892
0
LINE
8
B.Mask
6
CONTINUOUS
10
97.6866469999999936
20
-83.8231929999999892
11
97.5645930000000021
21
-83.9452469999999948
0
LINE
8
B.Mask
6
CONTINUOUS
10
97.5645930000000021
20
-83.9452469999999948
11
97.4249480000000005
21
-84.0467039999999912
0
LINE
8
B.Mask
6
CONTINUOUS
10
97.4249480000000005
20
-84.0467039999999912
11
97.2711520000000007
21
-84.1250670000000014
0
LINE
8
B.Mask
6
CONTINUOUS
10
97.2711520000000007
20
-84.1250670000000014
11
97.1069899999999961
21
-84.1784069999999929
0
LINE
8
B.Mask
6
CONTINUOUS
10
97.1069899999999961
20
-84.1784069999999929
11
96.9365049999999968
21
-84.2054090000000031
0
LINE
8
B.Mask
6
CONTINUOUS
10
96.9365049999999968
20
-84.2054090000000031
11
96.7638949999999909
21
-84.2054090000000031
0
LINE
8
B.Mask
6
CONTINUOUS
10
96.7638949999999909
20
-84.2054090000000031
11
96.5934099999999916
21
-84.1784069999999929
0
LINE
8
B.Mask
6
CONTINUOUS
10
96.5934099999999916
20
-84.1784069999999929
11
96.4292480000000012
21
-84.1250670000000014
0
LINE
8
B.Mask
6
CONTINUOUS
10
96.4292480000000012
20
-84.1250670000000014
11
96.2754520000000014
21
-84.0467039999999912
0
LINE
8
B.Mask
6
CONTINUOUS
10
96.2754520000000014
20
-84.0467039999999912
11
96.1358069999999998
21
-83.9452469999999948
0
LINE
8
B.Mask
6
CONTINUOUS
10
96.1358069999999998
20
-83.9452469999999948
11
96.0137529999999941
21
-83.8231929999999892
0
LINE
8
B.Mask
6
CONTINUOUS
10
96.0137529999999941
20
-83.8231929999999892
11
95.9122959999999978
21
-83.6835480000000018
0
LINE
8
B.Mask
6
CONTINUOUS
10
95.9122959999999978
20
-83.6835480000000018
11
95.8339330000000018
21
-83.529752000000002
0
LINE
8
B.Mask
6
CONTINUOUS
10
95.8339330000000018
20
-83.529752000000002
11
95.7805929999999961
21
-83.3655899999999974
0
LINE
8
B.Mask
6
CONTINUOUS
10
95.7805929999999961
20
-83.3655899999999974
11
95.7535910000000001
21
-83.1951049999999981
0
LINE
8
B.Mask
6
CONTINUOUS
10
95.7535910000000001
20
-83.1951049999999981
11
95.7535910000000001
21
-83.0224949999999922
0
LINE
8
B.Mask
6
CONTINUOUS
10
95.7535910000000001
20
-83.0224949999999922
11
95.7805929999999961
21
-82.8520099999999928
0
LINE
8
B.Mask
6
CONTINUOUS
10
95.7805929999999961
20
-82.8520099999999928
11
95.8339330000000018
21
-82.6878480000000025
0
LINE
8
B.Mask
6
CONTINUOUS
10
95.8339330000000018
20
-82.6878480000000025
11
95.9122959999999978
21
-82.5340520000000026
0
LINE
8
B.Mask
6
CONTINUOUS
10
95.9122959999999978
20
-82.5340520000000026
11
96.0137529999999941
21
-82.3944070000000011
0
LINE
8
B.Mask
6
CONTINUOUS
10
96.0137529999999941
20
-82.3944070000000011
11
96.1358069999999998
21
-82.2723529999999954
0
LINE
8
B.Mask
6
CONTINUOUS
10
96.1358069999999998
20
-82.2723529999999954
11
96.2754520000000014
21
-82.170895999999999
0
LINE
8
B.Mask
6
CONTINUOUS
10
96.2754520000000014
20
-82.170895999999999
11
96.4292480000000012
21
-82.0925330000000031
0
LINE
8
B.Mask
6
CONTINUOUS
10
96.4292480000000012
20
-82.0925330000000031
11
96.5934099999999916
21
-82.0391929999999974
0
LINE
8
B.Mask
6
CONTINUOUS
10
96.5934099999999916
20
-82.0391929999999974
11
96.7638949999999909
21
-82.0121910000000014
0
LINE
8
B.Mask
6
CONTINUOUS
10
96.7638949999999909
20
-82.0121910000000014
11
96.9365049999999968
21
-82.0121910000000014
0
LINE
8
B.Mask
6
CONTINUOUS
10
96.9365049999999968
20
-82.0121910000000014
11
97.1069899999999961
21
-82.0391929999999974
0
LINE
8
B.Mask
6
CONTINUOUS
10
100.8724759999999918
20
-78.6518659999999983
11
100.9968190000000021
21
-78.7236559999999912
0
LINE
8
B.Mask
6
CONTINUOUS
10
100.9968190000000021
20
-78.7236559999999912
11
101.0983439999999973
21
-78.8251810000000006
0
LINE
8
B.Mask
6
CONTINUOUS
10
101.0983439999999973
20
-78.8251810000000006
11
101.1701339999999902
21
-78.9495239999999967
0
LINE
8
B.Mask
6
CONTINUOUS
10
101.1701339999999902
20
-78.9495239999999967
11
101.207295000000002
21
-79.0882110000000011
0
LINE
8
B.Mask
6
CONTINUOUS
10
101.207295000000002
20
-79.0882110000000011
11
101.2119999999999891
21
-79.1599999999999966
0
LINE
8
B.Mask
6
CONTINUOUS
10
101.2119999999999891
20
-79.1599999999999966
11
101.2119999999999891
21
-80.0600000000000023
0
LINE
8
B.Mask
6
CONTINUOUS
10
101.2119999999999891
20
-80.0600000000000023
11
101.207295000000002
21
-80.1317889999999977
0
LINE
8
B.Mask
6
CONTINUOUS
10
101.207295000000002
20
-80.1317889999999977
11
101.1701339999999902
21
-80.2704760000000022
0
LINE
8
B.Mask
6
CONTINUOUS
10
101.1701339999999902
20
-80.2704760000000022
11
101.0983439999999973
21
-80.3948189999999983
0
LINE
8
B.Mask
6
CONTINUOUS
10
101.0983439999999973
20
-80.3948189999999983
11
100.9968190000000021
21
-80.4963439999999935
0
LINE
8
B.Mask
6
CONTINUOUS
10
100.9968190000000021
20
-80.4963439999999935
11
100.8724759999999918
21
-80.5681340000000006
0
LINE
8
B.Mask
6
CONTINUOUS
10
100.8724759999999918
20
-80.5681340000000006
11
100.7337890000000016
21
-80.6052949999999981
0
LINE
8
B.Mask
6
CONTINUOUS
10
100.7337890000000016
20
-80.6052949999999981
11
100.5902109999999965
21
-80.6052949999999981
0
LINE
8
B.Mask
6
CONTINUOUS
10
100.5902109999999965
20
-80.6052949999999981
11
100.451523999999992
21
-80.5681340000000006
0
LINE
8
B.Mask
6
CONTINUOUS
10
100.451523999999992
20
-80.5681340000000006
11
100.3271809999999959
21
-80.4963439999999935
0
LINE
8
B.Mask
6
CONTINUOUS
10
100.3271809999999959
20
-80.4963439999999935
11
100.2256560000000007
21
-80.3948189999999983
0
LINE
8
B.Mask
6
CONTINUOUS
10
100.2256560000000007
20
-80.3948189999999983
11
100.1538659999999936
21
-80.2704760000000022
0
LINE
8
B.Mask
6
CONTINUOUS
10
100.1538659999999936
20
-80.2704760000000022
11
100.1167049999999961
21
-80.1317889999999977
0
LINE
8
B.Mask
6
CONTINUOUS
10
100.1167049999999961
20
-80.1317889999999977
11
100.1119999999999948
21
-80.0600000000000023
0
LINE
8
B.Mask
6
CONTINUOUS
10
100.1119999999999948
20
-80.0600000000000023
11
100.1119999999999948
21
-79.1599999999999966
0
LINE
8
B.Mask
6
CONTINUOUS
10
100.1119999999999948
20
-79.1599999999999966
11
100.1167049999999961
21
-79.0882110000000011
0
LINE
8
B.Mask
6
CONTINUOUS
10
100.1167049999999961
20
-79.0882110000000011
11
100.1538659999999936
21
-78.9495239999999967
0
LINE
8
B.Mask
6
CONTINUOUS
10
100.1538659999999936
20
-78.9495239999999967
11
100.2256560000000007
21
-78.8251810000000006
0
LINE
8
B.Mask
6
CONTINUOUS
10
100.2256560000000007
20
-78.8251810000000006
11
100.3271809999999959
21
-78.7236559999999912
0
LINE
8
B.Mask
6
CONTINUOUS
10
100.3271809999999959
20
-78.7236559999999912
11
100.451523999999992
21
-78.6518659999999983
0
LINE
8
B.Mask
6
CONTINUOUS
10
100.451523999999992
20
-78.6518659999999983
11
100.5902109999999965
21
-78.6147050000000007
0
LINE
8
B.Mask
6
CONTINUOUS
10
100.5902109999999965
20
-78.6147050000000007
11
100.7337890000000016
21
-78.6147050000000007
0
LINE
8
B.Mask
6
CONTINUOUS
10
100.7337890000000016
20
-78.6147050000000007
11
100.8724759999999918
21
-78.6518659999999983
0
LINE
8
B.Mask
6
CONTINUOUS
10
109.5124759999999924
20
-78.6518659999999983
11
109.6368189999999885
21
-78.7236559999999912
0
LINE
8
B.Mask
6
CONTINUOUS
10
109.6368189999999885
20
-78.7236559999999912
11
109.7383439999999979
21
-78.8251810000000006
0
LINE
8
B.Mask
6
CONTINUOUS
10
109.7383439999999979
20
-78.8251810000000006
11
109.8101339999999908
21
-78.9495239999999967
0
LINE
8
B.Mask
6
CONTINUOUS
10
109.8101339999999908
20
-78.9495239999999967
11
109.8472949999999884
21
-79.0882110000000011
0
LINE
8
B.Mask
6
CONTINUOUS
10
109.8472949999999884
20
-79.0882110000000011
11
109.8519999999999897
21
-79.1599999999999966
0
LINE
8
B.Mask
6
CONTINUOUS
10
109.8519999999999897
20
-79.1599999999999966
11
109.8519999999999897
21
-80.0600000000000023
0
LINE
8
B.Mask
6
CONTINUOUS
10
109.8519999999999897
20
-80.0600000000000023
11
109.8472949999999884
21
-80.1317889999999977
0
LINE
8
B.Mask
6
CONTINUOUS
10
109.8472949999999884
20
-80.1317889999999977
11
109.8101339999999908
21
-80.2704760000000022
0
LINE
8
B.Mask
6
CONTINUOUS
10
109.8101339999999908
20
-80.2704760000000022
11
109.7383439999999979
21
-80.3948189999999983
0
LINE
8
B.Mask
6
CONTINUOUS
10
109.7383439999999979
20
-80.3948189999999983
11
109.6368189999999885
21
-80.4963439999999935
0
LINE
8
B.Mask
6
CONTINUOUS
10
109.6368189999999885
20
-80.4963439999999935
11
109.5124759999999924
21
-80.5681340000000006
0
LINE
8
B.Mask
6
CONTINUOUS
10
109.5124759999999924
20
-80.5681340000000006
11
109.3737890000000021
21
-80.6052949999999981
0
LINE
8
B.Mask
6
CONTINUOUS
10
109.3737890000000021
20
-80.6052949999999981
11
109.2302109999999971
21
-80.6052949999999981
0
LINE
8
B.Mask
6
CONTINUOUS
10
109.2302109999999971
20
-80.6052949999999981
11
109.0915239999999926
21
-80.5681340000000006
0
LINE
8
B.Mask
6
CONTINUOUS
10
109.0915239999999926
20
-80.5681340000000006
11
108.9671809999999965
21
-80.4963439999999935
0
LINE
8
B.Mask
6
CONTINUOUS
10
108.9671809999999965
20
-80.4963439999999935
11
108.8656560000000013
21
-80.3948189999999983
0
LINE
8
B.Mask
6
CONTINUOUS
10
108.8656560000000013
20
-80.3948189999999983
11
108.7938659999999942
21
-80.2704760000000022
0
LINE
8
B.Mask
6
CONTINUOUS
10
108.7938659999999942
20
-80.2704760000000022
11
108.7567049999999966
21
-80.1317889999999977
0
LINE
8
B.Mask
6
CONTINUOUS
10
108.7567049999999966
20
-80.1317889999999977
11
108.7519999999999953
21
-80.0600000000000023
0
LINE
8
B.Mask
6
CONTINUOUS
10
108.7519999999999953
20
-80.0600000000000023
11
108.7519999999999953
21
-79.1599999999999966
0
LINE
8
B.Mask
6
CONTINUOUS
10
108.7519999999999953
20
-79.1599999999999966
11
108.7567049999999966
21
-79.0882110000000011
0
LINE
8
B.Mask
6
CONTINUOUS
10
108.7567049999999966
20
-79.0882110000000011
11
108.7938659999999942
21
-78.9495239999999967
0
LINE
8
B.Mask
6
CONTINUOUS
10
108.7938659999999942
20
-78.9495239999999967
11
108.8656560000000013
21
-78.8251810000000006
0
LINE
8
B.Mask
6
CONTINUOUS
10
108.8656560000000013
20
-78.8251810000000006
11
108.9671809999999965
21
-78.7236559999999912
0
LINE
8
B.Mask
6
CONTINUOUS
10
108.9671809999999965
20
-78.7236559999999912
11
109.0915239999999926
21
-78.6518659999999983
0
LINE
8
B.Mask
6
CONTINUOUS
10
109.0915239999999926
20
-78.6518659999999983
11
109.2302109999999971
21
-78.6147050000000007
0
LINE
8
B.Mask
6
CONTINUOUS
10
109.2302109999999971
20
-78.6147050000000007
11
109.3737890000000021
21
-78.6147050000000007
0
LINE
8
B.Mask
6
CONTINUOUS
10
109.3737890000000021
20
-78.6147050000000007
11
109.5124759999999924
21
-78.6518659999999983
0
LINE
8
B.Mask
6
CONTINUOUS
10
111.7124759999999952
20
-78.6518659999999983
11
111.8368189999999913
21
-78.7236559999999912
0
LINE
8
B.Mask
6
CONTINUOUS
10
111.8368189999999913
20
-78.7236559999999912
11
111.9383440000000007
21
-78.8251810000000006
0
LINE
8
B.Mask
6
CONTINUOUS
10
111.9383440000000007
20
-78.8251810000000006
11
112.0101339999999936
21
-78.9495239999999967
0
LINE
8
B.Mask
6
CONTINUOUS
10
112.0101339999999936
20
-78.9495239999999967
11
112.0472949999999912
21
-79.0882110000000011
0
LINE
8
B.Mask
6
CONTINUOUS
10
112.0472949999999912
20
-79.0882110000000011
11
112.0519999999999925
21
-79.1599999999999966
0
LINE
8
B.Mask
6
CONTINUOUS
10
112.0519999999999925
20
-79.1599999999999966
11
112.0519999999999925
21
-80.0600000000000023
0
LINE
8
B.Mask
6
CONTINUOUS
10
112.0519999999999925
20
-80.0600000000000023
11
112.0472949999999912
21
-80.1317889999999977
0
LINE
8
B.Mask
6
CONTINUOUS
10
112.0472949999999912
20
-80.1317889999999977
11
112.0101339999999936
21
-80.2704760000000022
0
LINE
8
B.Mask
6
CONTINUOUS
10
112.0101339999999936
20
-80.2704760000000022
11
111.9383440000000007
21
-80.3948189999999983
0
LINE
8
B.Mask
6
CONTINUOUS
10
111.9383440000000007
20
-80.3948189999999983
11
111.8368189999999913
21
-80.4963439999999935
0
LINE
8
B.Mask
6
CONTINUOUS
10
111.8368189999999913
20
-80.4963439999999935
11
111.7124759999999952
21
-80.5681340000000006
0
LINE
8
B.Mask
6
CONTINUOUS
10
111.7124759999999952
20
-80.5681340000000006
11
111.5737889999999908
21
-80.6052949999999981
0
LINE
8
B.Mask
6
CONTINUOUS
10
111.5737889999999908
20
-80.6052949999999981
11
111.4302109999999999
21
-80.6052949999999981
0
LINE
8
B.Mask
6
CONTINUOUS
10
111.4302109999999999
20
-80.6052949999999981
11
111.2915239999999955
21
-80.5681340000000006
0
LINE
8
B.Mask
6
CONTINUOUS
10
111.2915239999999955
20
-80.5681340000000006
11
111.1671809999999994
21
-80.4963439999999935
0
LINE
8
B.Mask
6
CONTINUOUS
10
111.1671809999999994
20
-80.4963439999999935
11
111.0656559999999899
21
-80.3948189999999983
0
LINE
8
B.Mask
6
CONTINUOUS
10
111.0656559999999899
20
-80.3948189999999983
11
110.993865999999997
21
-80.2704760000000022
0
LINE
8
B.Mask
6
CONTINUOUS
10
110.993865999999997
20
-80.2704760000000022
11
110.9567049999999995
21
-80.1317889999999977
0
LINE
8
B.Mask
6
CONTINUOUS
10
110.9567049999999995
20
-80.1317889999999977
11
110.9519999999999982
21
-80.0600000000000023
0
LINE
8
B.Mask
6
CONTINUOUS
10
110.9519999999999982
20
-80.0600000000000023
11
110.9519999999999982
21
-79.1599999999999966
0
LINE
8
B.Mask
6
CONTINUOUS
10
110.9519999999999982
20
-79.1599999999999966
11
110.9567049999999995
21
-79.0882110000000011
0
LINE
8
B.Mask
6
CONTINUOUS
10
110.9567049999999995
20
-79.0882110000000011
11
110.993865999999997
21
-78.9495239999999967
0
LINE
8
B.Mask
6
CONTINUOUS
10
110.993865999999997
20
-78.9495239999999967
11
111.0656559999999899
21
-78.8251810000000006
0
LINE
8
B.Mask
6
CONTINUOUS
10
111.0656559999999899
20
-78.8251810000000006
11
111.1671809999999994
21
-78.7236559999999912
0
LINE
8
B.Mask
6
CONTINUOUS
10
111.1671809999999994
20
-78.7236559999999912
11
111.2915239999999955
21
-78.6518659999999983
0
LINE
8
B.Mask
6
CONTINUOUS
10
111.2915239999999955
20
-78.6518659999999983
11
111.4302109999999999
21
-78.6147050000000007
0
LINE
8
B.Mask
6
CONTINUOUS
10
111.4302109999999999
20
-78.6147050000000007
11
111.5737889999999908
21
-78.6147050000000007
0
LINE
8
B.Mask
6
CONTINUOUS
10
111.5737889999999908
20
-78.6147050000000007
11
111.7124759999999952
21
-78.6518659999999983
0
LINE
8
B.Mask
6
CONTINUOUS
10
120.3524759999999958
20
-78.6518659999999983
11
120.4768189999999919
21
-78.7236559999999912
0
LINE
8
B.Mask
6
CONTINUOUS
10
120.4768189999999919
20
-78.7236559999999912
11
120.5783440000000013
21
-78.8251810000000006
0
LINE
8
B.Mask
6
CONTINUOUS
10
120.5783440000000013
20
-78.8251810000000006
11
120.6501339999999942
21
-78.9495239999999967
0
LINE
8
B.Mask
6
CONTINUOUS
10
120.6501339999999942
20
-78.9495239999999967
11
120.6872949999999918
21
-79.0882110000000011
0
LINE
8
B.Mask
6
CONTINUOUS
10
120.6872949999999918
20
-79.0882110000000011
11
120.6919999999999931
21
-79.1599999999999966
0
LINE
8
B.Mask
6
CONTINUOUS
10
120.6919999999999931
20
-79.1599999999999966
11
120.6919999999999931
21
-80.0600000000000023
0
LINE
8
B.Mask
6
CONTINUOUS
10
120.6919999999999931
20
-80.0600000000000023
11
120.6872949999999918
21
-80.1317889999999977
0
LINE
8
B.Mask
6
CONTINUOUS
10
120.6872949999999918
20
-80.1317889999999977
11
120.6501339999999942
21
-80.2704760000000022
0
LINE
8
B.Mask
6
CONTINUOUS
10
120.6501339999999942
20
-80.2704760000000022
11
120.5783440000000013
21
-80.3948189999999983
0
LINE
8
B.Mask
6
CONTINUOUS
10
120.5783440000000013
20
-80.3948189999999983
11
120.4768189999999919
21
-80.4963439999999935
0
LINE
8
B.Mask
6
CONTINUOUS
10
120.4768189999999919
20
-80.4963439999999935
11
120.3524759999999958
21
-80.5681340000000006
0
LINE
8
B.Mask
6
CONTINUOUS
10
120.3524759999999958
20
-80.5681340000000006
11
120.2137889999999913
21
-80.6052949999999981
0
LINE
8
B.Mask
6
CONTINUOUS
10
120.2137889999999913
20
-80.6052949999999981
11
120.0702110000000005
21
-80.6052949999999981
0
LINE
8
B.Mask
6
CONTINUOUS
10
120.0702110000000005
20
-80.6052949999999981
11
119.931523999999996
21
-80.5681340000000006
0
LINE
8
B.Mask
6
CONTINUOUS
10
119.931523999999996
20
-80.5681340000000006
11
119.8071809999999999
21
-80.4963439999999935
0
LINE
8
B.Mask
6
CONTINUOUS
10
119.8071809999999999
20
-80.4963439999999935
11
119.7056559999999905
21
-80.3948189999999983
0
LINE
8
B.Mask
6
CONTINUOUS
10
119.7056559999999905
20
-80.3948189999999983
11
119.6338659999999976
21
-80.2704760000000022
0
LINE
8
B.Mask
6
CONTINUOUS
10
119.6338659999999976
20
-80.2704760000000022
11
119.596705
21
-80.1317889999999977
0
LINE
8
B.Mask
6
CONTINUOUS
10
119.596705
20
-80.1317889999999977
11
119.5919999999999987
21
-80.0600000000000023
0
LINE
8
B.Mask
6
CONTINUOUS
10
119.5919999999999987
20
-80.0600000000000023
11
119.5919999999999987
21
-79.1599999999999966
0
LINE
8
B.Mask
6
CONTINUOUS
10
119.5919999999999987
20
-79.1599999999999966
11
119.596705
21
-79.0882110000000011
0
LINE
8
B.Mask
6
CONTINUOUS
10
119.596705
20
-79.0882110000000011
11
119.6338659999999976
21
-78.9495239999999967
0
LINE
8
B.Mask
6
CONTINUOUS
10
119.6338659999999976
20
-78.9495239999999967
11
119.7056559999999905
21
-78.8251810000000006
0
LINE
8
B.Mask
6
CONTINUOUS
10
119.7056559999999905
20
-78.8251810000000006
11
119.8071809999999999
21
-78.7236559999999912
0
LINE
8
B.Mask
6
CONTINUOUS
10
119.8071809999999999
20
-78.7236559999999912
11
119.931523999999996
21
-78.6518659999999983
0
LINE
8
B.Mask
6
CONTINUOUS
10
119.931523999999996
20
-78.6518659999999983
11
120.0702110000000005
21
-78.6147050000000007
0
LINE
8
B.Mask
6
CONTINUOUS
10
120.0702110000000005
20
-78.6147050000000007
11
120.2137889999999913
21
-78.6147050000000007
0
LINE
8
B.Mask
6
CONTINUOUS
10
120.2137889999999913
20
-78.6147050000000007
11
120.3524759999999958
21
-78.6518659999999983
0
LINE
8
B.Mask
6
CONTINUOUS
10
102.2259389999999968
20
-79.8166420000000016
11
102.305066999999994
21
-79.8623259999999959
0
LINE
8
B.Mask
6
CONTINUOUS
10
102.305066999999994
20
-79.8623259999999959
11
102.3696739999999892
21
-79.9269329999999911
0
LINE
8
B.Mask
6
CONTINUOUS
10
102.3696739999999892
20
-79.9269329999999911
11
102.4153579999999977
21
-80.0060610000000025
0
LINE
8
B.Mask
6
CONTINUOUS
10
102.4153579999999977
20
-80.0060610000000025
11
102.439005999999992
21
-80.0943159999999921
0
LINE
8
B.Mask
6
CONTINUOUS
10
102.439005999999992
20
-80.0943159999999921
11
102.439005999999992
21
-80.1856839999999949
0
LINE
8
B.Mask
6
CONTINUOUS
10
102.439005999999992
20
-80.1856839999999949
11
102.4153579999999977
21
-80.2739389999999986
0
LINE
8
B.Mask
6
CONTINUOUS
10
102.4153579999999977
20
-80.2739389999999986
11
102.3696739999999892
21
-80.3530669999999958
0
LINE
8
B.Mask
6
CONTINUOUS
10
102.3696739999999892
20
-80.3530669999999958
11
102.305066999999994
21
-80.417673999999991
0
LINE
8
B.Mask
6
CONTINUOUS
10
102.305066999999994
20
-80.417673999999991
11
102.2259389999999968
21
-80.4633579999999995
0
LINE
8
B.Mask
6
CONTINUOUS
10
102.2259389999999968
20
-80.4633579999999995
11
102.137683999999993
21
-80.4870059999999938
0
LINE
8
B.Mask
6
CONTINUOUS
10
102.137683999999993
20
-80.4870059999999938
11
102.0463159999999903
21
-80.4870059999999938
0
LINE
8
B.Mask
6
CONTINUOUS
10
102.0463159999999903
20
-80.4870059999999938
11
101.9580610000000007
21
-80.4633579999999995
0
LINE
8
B.Mask
6
CONTINUOUS
10
101.9580610000000007
20
-80.4633579999999995
11
101.8789329999999893
21
-80.417673999999991
0
LINE
8
B.Mask
6
CONTINUOUS
10
101.8789329999999893
20
-80.417673999999991
11
101.8143259999999941
21
-80.3530669999999958
0
LINE
8
B.Mask
6
CONTINUOUS
10
101.8143259999999941
20
-80.3530669999999958
11
101.7686419999999998
21
-80.2739389999999986
0
LINE
8
B.Mask
6
CONTINUOUS
10
101.7686419999999998
20
-80.2739389999999986
11
101.7449939999999913
21
-80.1856839999999949
0
LINE
8
B.Mask
6
CONTINUOUS
10
101.7449939999999913
20
-80.1856839999999949
11
101.7449939999999913
21
-80.0943159999999921
0
LINE
8
B.Mask
6
CONTINUOUS
10
101.7449939999999913
20
-80.0943159999999921
11
101.7686419999999998
21
-80.0060610000000025
0
LINE
8
B.Mask
6
CONTINUOUS
10
101.7686419999999998
20
-80.0060610000000025
11
101.8143259999999941
21
-79.9269329999999911
0
LINE
8
B.Mask
6
CONTINUOUS
10
101.8143259999999941
20
-79.9269329999999911
11
101.8789329999999893
21
-79.8623259999999959
0
LINE
8
B.Mask
6
CONTINUOUS
10
101.8789329999999893
20
-79.8623259999999959
11
101.9580610000000007
21
-79.8166420000000016
0
LINE
8
B.Mask
6
CONTINUOUS
10
101.9580610000000007
20
-79.8166420000000016
11
102.0463159999999903
21
-79.7929939999999931
0
LINE
8
B.Mask
6
CONTINUOUS
10
102.0463159999999903
20
-79.7929939999999931
11
102.137683999999993
21
-79.7929939999999931
0
LINE
8
B.Mask
6
CONTINUOUS
10
102.137683999999993
20
-79.7929939999999931
11
102.2259389999999968
21
-79.8166420000000016
0
LINE
8
B.Mask
6
CONTINUOUS
10
108.0059389999999979
20
-79.8166420000000016
11
108.0850669999999951
21
-79.8623259999999959
0
LINE
8
B.Mask
6
CONTINUOUS
10
108.0850669999999951
20
-79.8623259999999959
11
108.1496739999999903
21
-79.9269329999999911
0
LINE
8
B.Mask
6
CONTINUOUS
10
108.1496739999999903
20
-79.9269329999999911
11
108.1953579999999988
21
-80.0060610000000025
0
LINE
8
B.Mask
6
CONTINUOUS
10
108.1953579999999988
20
-80.0060610000000025
11
108.2190059999999932
21
-80.0943159999999921
0
LINE
8
B.Mask
6
CONTINUOUS
10
108.2190059999999932
20
-80.0943159999999921
11
108.2190059999999932
21
-80.1856839999999949
0
LINE
8
B.Mask
6
CONTINUOUS
10
108.2190059999999932
20
-80.1856839999999949
11
108.1953579999999988
21
-80.2739389999999986
0
LINE
8
B.Mask
6
CONTINUOUS
10
108.1953579999999988
20
-80.2739389999999986
11
108.1496739999999903
21
-80.3530669999999958
0
LINE
8
B.Mask
6
CONTINUOUS
10
108.1496739999999903
20
-80.3530669999999958
11
108.0850669999999951
21
-80.417673999999991
0
LINE
8
B.Mask
6
CONTINUOUS
10
108.0850669999999951
20
-80.417673999999991
11
108.0059389999999979
21
-80.4633579999999995
0
LINE
8
B.Mask
6
CONTINUOUS
10
108.0059389999999979
20
-80.4633579999999995
11
107.9176839999999942
21
-80.4870059999999938
0
LINE
8
B.Mask
6
CONTINUOUS
10
107.9176839999999942
20
-80.4870059999999938
11
107.8263159999999914
21
-80.4870059999999938
0
LINE
8
B.Mask
6
CONTINUOUS
10
107.8263159999999914
20
-80.4870059999999938
11
107.7380610000000019
21
-80.4633579999999995
0
LINE
8
B.Mask
6
CONTINUOUS
10
107.7380610000000019
20
-80.4633579999999995
11
107.6589329999999904
21
-80.417673999999991
0
LINE
8
B.Mask
6
CONTINUOUS
10
107.6589329999999904
20
-80.417673999999991
11
107.5943259999999952
21
-80.3530669999999958
0
LINE
8
B.Mask
6
CONTINUOUS
10
107.5943259999999952
20
-80.3530669999999958
11
107.548642000000001
21
-80.2739389999999986
0
LINE
8
B.Mask
6
CONTINUOUS
10
107.548642000000001
20
-80.2739389999999986
11
107.5249939999999924
21
-80.1856839999999949
0
LINE
8
B.Mask
6
CONTINUOUS
10
107.5249939999999924
20
-80.1856839999999949
11
107.5249939999999924
21
-80.0943159999999921
0
LINE
8
B.Mask
6
CONTINUOUS
10
107.5249939999999924
20
-80.0943159999999921
11
107.548642000000001
21
-80.0060610000000025
0
LINE
8
B.Mask
6
CONTINUOUS
10
107.548642000000001
20
-80.0060610000000025
11
107.5943259999999952
21
-79.9269329999999911
0
LINE
8
B.Mask
6
CONTINUOUS
10
107.5943259999999952
20
-79.9269329999999911
11
107.6589329999999904
21
-79.8623259999999959
0
LINE
8
B.Mask
6
CONTINUOUS
10
107.6589329999999904
20
-79.8623259999999959
11
107.7380610000000019
21
-79.8166420000000016
0
LINE
8
B.Mask
6
CONTINUOUS
10
107.7380610000000019
20
-79.8166420000000016
11
107.8263159999999914
21
-79.7929939999999931
0
LINE
8
B.Mask
6
CONTINUOUS
10
107.8263159999999914
20
-79.7929939999999931
11
107.9176839999999942
21
-79.7929939999999931
0
LINE
8
B.Mask
6
CONTINUOUS
10
107.9176839999999942
20
-79.7929939999999931
11
108.0059389999999979
21
-79.8166420000000016
0
LINE
8
B.Mask
6
CONTINUOUS
10
113.0659390000000002
20
-79.8166420000000016
11
113.1450669999999974
21
-79.8623259999999959
0
LINE
8
B.Mask
6
CONTINUOUS
10
113.1450669999999974
20
-79.8623259999999959
11
113.2096739999999926
21
-79.9269329999999911
0
LINE
8
B.Mask
6
CONTINUOUS
10
113.2096739999999926
20
-79.9269329999999911
11
113.2553580000000011
21
-80.0060610000000025
0
LINE
8
B.Mask
6
CONTINUOUS
10
113.2553580000000011
20
-80.0060610000000025
11
113.2790059999999954
21
-80.0943159999999921
0
LINE
8
B.Mask
6
CONTINUOUS
10
113.2790059999999954
20
-80.0943159999999921
11
113.2790059999999954
21
-80.1856839999999949
0
LINE
8
B.Mask
6
CONTINUOUS
10
113.2790059999999954
20
-80.1856839999999949
11
113.2553580000000011
21
-80.2739389999999986
0
LINE
8
B.Mask
6
CONTINUOUS
10
113.2553580000000011
20
-80.2739389999999986
11
113.2096739999999926
21
-80.3530669999999958
0
LINE
8
B.Mask
6
CONTINUOUS
10
113.2096739999999926
20
-80.3530669999999958
11
113.1450669999999974
21
-80.417673999999991
0
LINE
8
B.Mask
6
CONTINUOUS
10
113.1450669999999974
20
-80.417673999999991
11
113.0659390000000002
21
-80.4633579999999995
0
LINE
8
B.Mask
6
CONTINUOUS
10
113.0659390000000002
20
-80.4633579999999995
11
112.9776839999999964
21
-80.4870059999999938
0
LINE
8
B.Mask
6
CONTINUOUS
10
112.9776839999999964
20
-80.4870059999999938
11
112.8863159999999937
21
-80.4870059999999938
0
LINE
8
B.Mask
6
CONTINUOUS
10
112.8863159999999937
20
-80.4870059999999938
11
112.7980609999999899
21
-80.4633579999999995
0
LINE
8
B.Mask
6
CONTINUOUS
10
112.7980609999999899
20
-80.4633579999999995
11
112.7189329999999927
21
-80.417673999999991
0
LINE
8
B.Mask
6
CONTINUOUS
10
112.7189329999999927
20
-80.417673999999991
11
112.6543259999999975
21
-80.3530669999999958
0
LINE
8
B.Mask
6
CONTINUOUS
10
112.6543259999999975
20
-80.3530669999999958
11
112.608641999999989
21
-80.2739389999999986
0
LINE
8
B.Mask
6
CONTINUOUS
10
112.608641999999989
20
-80.2739389999999986
11
112.5849939999999947
21
-80.1856839999999949
0
LINE
8
B.Mask
6
CONTINUOUS
10
112.5849939999999947
20
-80.1856839999999949
11
112.5849939999999947
21
-80.0943159999999921
0
LINE
8
B.Mask
6
CONTINUOUS
10
112.5849939999999947
20
-80.0943159999999921
11
112.608641999999989
21
-80.0060610000000025
0
LINE
8
B.Mask
6
CONTINUOUS
10
112.608641999999989
20
-80.0060610000000025
11
112.6543259999999975
21
-79.9269329999999911
0
LINE
8
B.Mask
6
CONTINUOUS
10
112.6543259999999975
20
-79.9269329999999911
11
112.7189329999999927
21
-79.8623259999999959
0
LINE
8
B.Mask
6
CONTINUOUS
10
112.7189329999999927
20
-79.8623259999999959
11
112.7980609999999899
21
-79.8166420000000016
0
LINE
8
B.Mask
6
CONTINUOUS
10
112.7980609999999899
20
-79.8166420000000016
11
112.8863159999999937
21
-79.7929939999999931
0
LINE
8
B.Mask
6
CONTINUOUS
10
112.8863159999999937
20
-79.7929939999999931
11
112.9776839999999964
21
-79.7929939999999931
0
LINE
8
B.Mask
6
CONTINUOUS
10
112.9776839999999964
20
-79.7929939999999931
11
113.0659390000000002
21
-79.8166420000000016
0
LINE
8
B.Mask
6
CONTINUOUS
10
118.8459390000000013
20
-79.8166420000000016
11
118.9250669999999985
21
-79.8623259999999959
0
LINE
8
B.Mask
6
CONTINUOUS
10
118.9250669999999985
20
-79.8623259999999959
11
118.9896739999999937
21
-79.9269329999999911
0
LINE
8
B.Mask
6
CONTINUOUS
10
118.9896739999999937
20
-79.9269329999999911
11
119.035357999999988
21
-80.0060610000000025
0
LINE
8
B.Mask
6
CONTINUOUS
10
119.035357999999988
20
-80.0060610000000025
11
119.0590059999999966
21
-80.0943159999999921
0
LINE
8
B.Mask
6
CONTINUOUS
10
119.0590059999999966
20
-80.0943159999999921
11
119.0590059999999966
21
-80.1856839999999949
0
LINE
8
B.Mask
6
CONTINUOUS
10
119.0590059999999966
20
-80.1856839999999949
11
119.035357999999988
21
-80.2739389999999986
0
LINE
8
B.Mask
6
CONTINUOUS
10
119.035357999999988
20
-80.2739389999999986
11
118.9896739999999937
21
-80.3530669999999958
0
LINE
8
B.Mask
6
CONTINUOUS
10
118.9896739999999937
20
-80.3530669999999958
11
118.9250669999999985
21
-80.417673999999991
0
LINE
8
B.Mask
6
CONTINUOUS
10
118.9250669999999985
20
-80.417673999999991
11
118.8459390000000013
21
-80.4633579999999995
0
LINE
8
B.Mask
6
CONTINUOUS
10
118.8459390000000013
20
-80.4633579999999995
11
118.7576839999999976
21
-80.4870059999999938
0
LINE
8
B.Mask
6
CONTINUOUS
10
118.7576839999999976
20
-80.4870059999999938
11
118.6663159999999948
21
-80.4870059999999938
0
LINE
8
B.Mask
6
CONTINUOUS
10
118.6663159999999948
20
-80.4870059999999938
11
118.5780609999999911
21
-80.4633579999999995
0
LINE
8
B.Mask
6
CONTINUOUS
10
118.5780609999999911
20
-80.4633579999999995
11
118.4989329999999939
21
-80.417673999999991
0
LINE
8
B.Mask
6
CONTINUOUS
10
118.4989329999999939
20
-80.417673999999991
11
118.4343259999999987
21
-80.3530669999999958
0
LINE
8
B.Mask
6
CONTINUOUS
10
118.4343259999999987
20
-80.3530669999999958
11
118.3886419999999902
21
-80.2739389999999986
0
LINE
8
B.Mask
6
CONTINUOUS
10
118.3886419999999902
20
-80.2739389999999986
11
118.3649939999999958
21
-80.1856839999999949
0
LINE
8
B.Mask
6
CONTINUOUS
10
118.3649939999999958
20
-80.1856839999999949
11
118.3649939999999958
21
-80.0943159999999921
0
LINE
8
B.Mask
6
CONTINUOUS
10
118.3649939999999958
20
-80.0943159999999921
11
118.3886419999999902
21
-80.0060610000000025
0
LINE
8
B.Mask
6
CONTINUOUS
10
118.3886419999999902
20
-80.0060610000000025
11
118.4343259999999987
21
-79.9269329999999911
0
LINE
8
B.Mask
6
CONTINUOUS
10
118.4343259999999987
20
-79.9269329999999911
11
118.4989329999999939
21
-79.8623259999999959
0
LINE
8
B.Mask
6
CONTINUOUS
10
118.4989329999999939
20
-79.8623259999999959
11
118.5780609999999911
21
-79.8166420000000016
0
LINE
8
B.Mask
6
CONTINUOUS
10
118.5780609999999911
20
-79.8166420000000016
11
118.6663159999999948
21
-79.7929939999999931
0
LINE
8
B.Mask
6
CONTINUOUS
10
118.6663159999999948
20
-79.7929939999999931
11
118.7576839999999976
21
-79.7929939999999931
0
LINE
8
B.Mask
6
CONTINUOUS
10
118.7576839999999976
20
-79.7929939999999931
11
118.8459390000000013
21
-79.8166420000000016
0
LINE
8
B.Mask
6
CONTINUOUS
10
138.1567900000000009
20
-75.5303930000000037
11
138.3209520000000055
21
-75.5837329999999952
0
LINE
8
B.Mask
6
CONTINUOUS
10
138.3209520000000055
20
-75.5837329999999952
11
138.4747480000000053
21
-75.6620959999999911
0
LINE
8
B.Mask
6
CONTINUOUS
10
138.4747480000000053
20
-75.6620959999999911
11
138.6143930000000069
21
-75.7635530000000017
0
LINE
8
B.Mask
6
CONTINUOUS
10
138.6143930000000069
20
-75.7635530000000017
11
138.7364469999999983
21
-75.8856069999999931
0
LINE
8
B.Mask
6
CONTINUOUS
10
138.7364469999999983
20
-75.8856069999999931
11
138.8379039999999804
21
-76.0252519999999947
0
LINE
8
B.Mask
6
CONTINUOUS
10
138.8379039999999804
20
-76.0252519999999947
11
138.9162670000000048
21
-76.1790479999999945
0
LINE
8
B.Mask
6
CONTINUOUS
10
138.9162670000000048
20
-76.1790479999999945
11
138.9696069999999963
21
-76.3432099999999991
0
LINE
8
B.Mask
6
CONTINUOUS
10
138.9696069999999963
20
-76.3432099999999991
11
138.9966090000000065
21
-76.5136949999999985
0
LINE
8
B.Mask
6
CONTINUOUS
10
138.9966090000000065
20
-76.5136949999999985
11
138.9966090000000065
21
-76.6863049999999902
0
LINE
8
B.Mask
6
CONTINUOUS
10
138.9966090000000065
20
-76.6863049999999902
11
138.9696069999999963
21
-76.8567899999999895
0
LINE
8
B.Mask
6
CONTINUOUS
10
138.9696069999999963
20
-76.8567899999999895
11
138.9162670000000048
21
-77.0209519999999941
0
LINE
8
B.Mask
6
CONTINUOUS
10
138.9162670000000048
20
-77.0209519999999941
11
138.8379039999999804
21
-77.1747479999999939
0
LINE
8
B.Mask
6
CONTINUOUS
10
138.8379039999999804
20
-77.1747479999999939
11
138.7364469999999983
21
-77.3143929999999955
0
LINE
8
B.Mask
6
CONTINUOUS
10
138.7364469999999983
20
-77.3143929999999955
11
138.6143930000000069
21
-77.4364470000000011
0
LINE
8
B.Mask
6
CONTINUOUS
10
138.6143930000000069
20
-77.4364470000000011
11
138.4747480000000053
21
-77.5379039999999975
0
LINE
8
B.Mask
6
CONTINUOUS
10
138.4747480000000053
20
-77.5379039999999975
11
138.3209520000000055
21
-77.6162669999999935
0
LINE
8
B.Mask
6
CONTINUOUS
10
138.3209520000000055
20
-77.6162669999999935
11
138.1567900000000009
21
-77.6696069999999992
0
LINE
8
B.Mask
6
CONTINUOUS
10
138.1567900000000009
20
-77.6696069999999992
11
137.9863049999999873
21
-77.6966089999999951
0
LINE
8
B.Mask
6
CONTINUOUS
10
137.9863049999999873
20
-77.6966089999999951
11
137.8136949999999956
21
-77.6966089999999951
0
LINE
8
B.Mask
6
CONTINUOUS
10
137.8136949999999956
20
-77.6966089999999951
11
137.6432099999999821
21
-77.6696069999999992
0
LINE
8
B.Mask
6
CONTINUOUS
10
137.6432099999999821
20
-77.6696069999999992
11
137.4790480000000059
21
-77.6162669999999935
0
LINE
8
B.Mask
6
CONTINUOUS
10
137.4790480000000059
20
-77.6162669999999935
11
137.3252520000000061
21
-77.5379039999999975
0
LINE
8
B.Mask
6
CONTINUOUS
10
137.3252520000000061
20
-77.5379039999999975
11
137.1856070000000045
21
-77.4364470000000011
0
LINE
8
B.Mask
6
CONTINUOUS
10
137.1856070000000045
20
-77.4364470000000011
11
137.0635529999999846
21
-77.3143929999999955
0
LINE
8
B.Mask
6
CONTINUOUS
10
137.0635529999999846
20
-77.3143929999999955
11
136.9620960000000025
21
-77.1747479999999939
0
LINE
8
B.Mask
6
CONTINUOUS
10
136.9620960000000025
20
-77.1747479999999939
11
136.8837330000000065
21
-77.0209519999999941
0
LINE
8
B.Mask
6
CONTINUOUS
10
136.8837330000000065
20
-77.0209519999999941
11
136.8303929999999866
21
-76.8567899999999895
0
LINE
8
B.Mask
6
CONTINUOUS
10
136.8303929999999866
20
-76.8567899999999895
11
136.8033910000000049
21
-76.6863049999999902
0
LINE
8
B.Mask
6
CONTINUOUS
10
136.8033910000000049
20
-76.6863049999999902
11
136.8033910000000049
21
-76.5136949999999985
0
LINE
8
B.Mask
6
CONTINUOUS
10
136.8033910000000049
20
-76.5136949999999985
11
136.8303929999999866
21
-76.3432099999999991
0
LINE
8
B.Mask
6
CONTINUOUS
10
136.8303929999999866
20
-76.3432099999999991
11
136.8837330000000065
21
-76.1790479999999945
0
LINE
8
B.Mask
6
CONTINUOUS
10
136.8837330000000065
20
-76.1790479999999945
11
136.9620960000000025
21
-76.0252519999999947
0
LINE
8
B.Mask
6
CONTINUOUS
10
136.9620960000000025
20
-76.0252519999999947
11
137.0635529999999846
21
-75.8856069999999931
0
LINE
8
B.Mask
6
CONTINUOUS
10
137.0635529999999846
20
-75.8856069999999931
11
137.1856070000000045
21
-75.7635530000000017
0
LINE
8
B.Mask
6
CONTINUOUS
10
137.1856070000000045
20
-75.7635530000000017
11
137.3252520000000061
21
-75.6620959999999911
0
LINE
8
B.Mask
6
CONTINUOUS
10
137.3252520000000061
20
-75.6620959999999911
11
137.4790480000000059
21
-75.5837329999999952
0
LINE
8
B.Mask
6
CONTINUOUS
10
137.4790480000000059
20
-75.5837329999999952
11
137.6432099999999821
21
-75.5303930000000037
0
LINE
8
B.Mask
6
CONTINUOUS
10
137.6432099999999821
20
-75.5303930000000037
11
137.8136949999999956
21
-75.5033909999999935
0
LINE
8
B.Mask
6
CONTINUOUS
10
137.8136949999999956
20
-75.5033909999999935
11
137.9863049999999873
21
-75.5033909999999935
0
LINE
8
B.Mask
6
CONTINUOUS
10
137.9863049999999873
20
-75.5033909999999935
11
138.1567900000000009
21
-75.5303930000000037
0
LINE
8
B.Mask
6
CONTINUOUS
10
141.6262629999999945
20
-72.2982779999999963
11
141.7523419999999987
21
-72.3320599999999985
0
LINE
8
B.Mask
6
CONTINUOUS
10
141.7523419999999987
20
-72.3320599999999985
11
141.8653809999999851
21
-72.3973230000000001
0
LINE
8
B.Mask
6
CONTINUOUS
10
141.8653809999999851
20
-72.3973230000000001
11
141.9576769999999897
21
-72.4896189999999905
0
LINE
8
B.Mask
6
CONTINUOUS
10
141.9576769999999897
20
-72.4896189999999905
11
142.0229400000000055
21
-72.602657999999991
0
LINE
8
B.Mask
6
CONTINUOUS
10
142.0229400000000055
20
-72.602657999999991
11
142.0567220000000077
21
-72.7287369999999953
0
LINE
8
B.Mask
6
CONTINUOUS
10
142.0567220000000077
20
-72.7287369999999953
11
142.0567220000000077
21
-72.8592629999999986
0
LINE
8
B.Mask
6
CONTINUOUS
10
142.0567220000000077
20
-72.8592629999999986
11
142.0229400000000055
21
-72.9853420000000028
0
LINE
8
B.Mask
6
CONTINUOUS
10
142.0229400000000055
20
-72.9853420000000028
11
141.9576769999999897
21
-73.0983810000000034
0
LINE
8
B.Mask
6
CONTINUOUS
10
141.9576769999999897
20
-73.0983810000000034
11
141.8653809999999851
21
-73.1906769999999938
0
LINE
8
B.Mask
6
CONTINUOUS
10
141.8653809999999851
20
-73.1906769999999938
11
141.7523419999999987
21
-73.2559399999999954
0
LINE
8
B.Mask
6
CONTINUOUS
10
141.7523419999999987
20
-73.2559399999999954
11
141.6262629999999945
21
-73.2897219999999976
0
LINE
8
B.Mask
6
CONTINUOUS
10
141.6262629999999945
20
-73.2897219999999976
11
141.561000000000007
21
-73.2939999999999969
0
LINE
8
B.Mask
6
CONTINUOUS
10
141.561000000000007
20
-73.2939999999999969
11
140.4609999999999843
21
-73.2939999999999969
0
LINE
8
B.Mask
6
CONTINUOUS
10
140.4609999999999843
20
-73.2939999999999969
11
140.3957369999999969
21
-73.2897219999999976
0
LINE
8
B.Mask
6
CONTINUOUS
10
140.3957369999999969
20
-73.2897219999999976
11
140.2696579999999926
21
-73.2559399999999954
0
LINE
8
B.Mask
6
CONTINUOUS
10
140.2696579999999926
20
-73.2559399999999954
11
140.1566190000000063
21
-73.1906769999999938
0
LINE
8
B.Mask
6
CONTINUOUS
10
140.1566190000000063
20
-73.1906769999999938
11
140.0643230000000017
21
-73.0983810000000034
0
LINE
8
B.Mask
6
CONTINUOUS
10
140.0643230000000017
20
-73.0983810000000034
11
139.9990599999999858
21
-72.9853420000000028
0
LINE
8
B.Mask
6
CONTINUOUS
10
139.9990599999999858
20
-72.9853420000000028
11
139.9652779999999836
21
-72.8592629999999986
0
LINE
8
B.Mask
6
CONTINUOUS
10
139.9652779999999836
20
-72.8592629999999986
11
139.9652779999999836
21
-72.7287369999999953
0
LINE
8
B.Mask
6
CONTINUOUS
10
139.9652779999999836
20
-72.7287369999999953
11
139.9990599999999858
21
-72.602657999999991
0
LINE
8
B.Mask
6
CONTINUOUS
10
139.9990599999999858
20
-72.602657999999991
11
140.0643230000000017
21
-72.4896189999999905
0
LINE
8
B.Mask
6
CONTINUOUS
10
140.0643230000000017
20
-72.4896189999999905
11
140.1566190000000063
21
-72.3973230000000001
0
LINE
8
B.Mask
6
CONTINUOUS
10
140.1566190000000063
20
-72.3973230000000001
11
140.2696579999999926
21
-72.3320599999999985
0
LINE
8
B.Mask
6
CONTINUOUS
10
140.2696579999999926
20
-72.3320599999999985
11
140.3957369999999969
21
-72.2982779999999963
0
LINE
8
B.Mask
6
CONTINUOUS
10
140.3957369999999969
20
-72.2982779999999963
11
140.4609999999999843
21
-72.2939999999999969
0
LINE
8
B.Mask
6
CONTINUOUS
10
140.4609999999999843
20
-72.2939999999999969
11
141.561000000000007
21
-72.2939999999999969
0
LINE
8
B.Mask
6
CONTINUOUS
10
141.561000000000007
20
-72.2939999999999969
11
141.6262629999999945
21
-72.2982779999999963
0
LINE
8
B.Mask
6
CONTINUOUS
10
90.2567899999999952
20
-62.4303929999999951
11
90.4209519999999998
21
-62.4837329999999938
0
LINE
8
B.Mask
6
CONTINUOUS
10
90.4209519999999998
20
-62.4837329999999938
11
90.5747479999999996
21
-62.5620959999999968
0
LINE
8
B.Mask
6
CONTINUOUS
10
90.5747479999999996
20
-62.5620959999999968
11
90.7143930000000012
21
-62.6635530000000003
0
LINE
8
B.Mask
6
CONTINUOUS
10
90.7143930000000012
20
-62.6635530000000003
11
90.8364469999999926
21
-62.7856069999999988
0
LINE
8
B.Mask
6
CONTINUOUS
10
90.8364469999999926
20
-62.7856069999999988
11
90.937903999999989
21
-62.9252520000000004
0
LINE
8
B.Mask
6
CONTINUOUS
10
90.937903999999989
20
-62.9252520000000004
11
91.0162669999999991
21
-63.0790480000000002
0
LINE
8
B.Mask
6
CONTINUOUS
10
91.0162669999999991
20
-63.0790480000000002
11
91.0696069999999906
21
-63.2432099999999977
0
LINE
8
B.Mask
6
CONTINUOUS
10
91.0696069999999906
20
-63.2432099999999977
11
91.0966090000000008
21
-63.413694999999997
0
LINE
8
B.Mask
6
CONTINUOUS
10
91.0966090000000008
20
-63.413694999999997
11
91.0966090000000008
21
-63.5863049999999959
0
LINE
8
B.Mask
6
CONTINUOUS
10
91.0966090000000008
20
-63.5863049999999959
11
91.0696069999999906
21
-63.7567899999999952
0
LINE
8
B.Mask
6
CONTINUOUS
10
91.0696069999999906
20
-63.7567899999999952
11
91.0162669999999991
21
-63.9209519999999998
0
LINE
8
B.Mask
6
CONTINUOUS
10
91.0162669999999991
20
-63.9209519999999998
11
90.937903999999989
21
-64.0747479999999996
0
LINE
8
B.Mask
6
CONTINUOUS
10
90.937903999999989
20
-64.0747479999999996
11
90.8364469999999926
21
-64.2143930000000012
0
LINE
8
B.Mask
6
CONTINUOUS
10
90.8364469999999926
20
-64.2143930000000012
11
90.7143930000000012
21
-64.3364469999999926
0
LINE
8
B.Mask
6
CONTINUOUS
10
90.7143930000000012
20
-64.3364469999999926
11
90.5747479999999996
21
-64.4379040000000032
0
LINE
8
B.Mask
6
CONTINUOUS
10
90.5747479999999996
20
-64.4379040000000032
11
90.4209519999999998
21
-64.5162669999999991
0
LINE
8
B.Mask
6
CONTINUOUS
10
90.4209519999999998
20
-64.5162669999999991
11
90.2567899999999952
21
-64.5696069999999906
0
LINE
8
B.Mask
6
CONTINUOUS
10
90.2567899999999952
20
-64.5696069999999906
11
90.0863049999999959
21
-64.5966090000000008
0
LINE
8
B.Mask
6
CONTINUOUS
10
90.0863049999999959
20
-64.5966090000000008
11
89.9136949999999899
21
-64.5966090000000008
0
LINE
8
B.Mask
6
CONTINUOUS
10
89.9136949999999899
20
-64.5966090000000008
11
89.7432099999999906
21
-64.5696069999999906
0
LINE
8
B.Mask
6
CONTINUOUS
10
89.7432099999999906
20
-64.5696069999999906
11
89.5790480000000002
21
-64.5162669999999991
0
LINE
8
B.Mask
6
CONTINUOUS
10
89.5790480000000002
20
-64.5162669999999991
11
89.4252520000000004
21
-64.4379040000000032
0
LINE
8
B.Mask
6
CONTINUOUS
10
89.4252520000000004
20
-64.4379040000000032
11
89.2856069999999988
21
-64.3364469999999926
0
LINE
8
B.Mask
6
CONTINUOUS
10
89.2856069999999988
20
-64.3364469999999926
11
89.1635529999999932
21
-64.2143930000000012
0
LINE
8
B.Mask
6
CONTINUOUS
10
89.1635529999999932
20
-64.2143930000000012
11
89.0620959999999968
21
-64.0747479999999996
0
LINE
8
B.Mask
6
CONTINUOUS
10
89.0620959999999968
20
-64.0747479999999996
11
88.9837330000000009
21
-63.9209519999999998
0
LINE
8
B.Mask
6
CONTINUOUS
10
88.9837330000000009
20
-63.9209519999999998
11
88.9303929999999951
21
-63.7567899999999952
0
LINE
8
B.Mask
6
CONTINUOUS
10
88.9303929999999951
20
-63.7567899999999952
11
88.9033909999999992
21
-63.5863049999999959
0
LINE
8
B.Mask
6
CONTINUOUS
10
88.9033909999999992
20
-63.5863049999999959
11
88.9033909999999992
21
-63.413694999999997
0
LINE
8
B.Mask
6
CONTINUOUS
10
88.9033909999999992
20
-63.413694999999997
11
88.9303929999999951
21
-63.2432099999999977
0
LINE
8
B.Mask
6
CONTINUOUS
10
88.9303929999999951
20
-63.2432099999999977
11
88.9837330000000009
21
-63.0790480000000002
0
LINE
8
B.Mask
6
CONTINUOUS
10
88.9837330000000009
20
-63.0790480000000002
11
89.0620959999999968
21
-62.9252520000000004
0
LINE
8
B.Mask
6
CONTINUOUS
10
89.0620959999999968
20
-62.9252520000000004
11
89.1635529999999932
21
-62.7856069999999988
0
LINE
8
B.Mask
6
CONTINUOUS
10
89.1635529999999932
20
-62.7856069999999988
11
89.2856069999999988
21
-62.6635530000000003
0
LINE
8
B.Mask
6
CONTINUOUS
10
89.2856069999999988
20
-62.6635530000000003
11
89.4252520000000004
21
-62.5620959999999968
0
LINE
8
B.Mask
6
CONTINUOUS
10
89.4252520000000004
20
-62.5620959999999968
11
89.5790480000000002
21
-62.4837329999999938
0
LINE
8
B.Mask
6
CONTINUOUS
10
89.5790480000000002
20
-62.4837329999999938
11
89.7432099999999906
21
-62.4303929999999951
0
LINE
8
B.Mask
6
CONTINUOUS
10
89.7432099999999906
20
-62.4303929999999951
11
89.9136949999999899
21
-62.4033909999999992
0
LINE
8
B.Mask
6
CONTINUOUS
10
89.9136949999999899
20
-62.4033909999999992
11
90.0863049999999959
21
-62.4033909999999992
0
LINE
8
B.Mask
6
CONTINUOUS
10
90.0863049999999959
20
-62.4033909999999992
11
90.2567899999999952
21
-62.4303929999999951
0
LINE
8
B.Mask
6
CONTINUOUS
10
141.6262629999999945
20
-61.8382779999999954
11
141.7523419999999987
21
-61.8720599999999976
0
LINE
8
B.Mask
6
CONTINUOUS
10
141.7523419999999987
20
-61.8720599999999976
11
141.8653809999999851
21
-61.9373229999999992
0
LINE
8
B.Mask
6
CONTINUOUS
10
141.8653809999999851
20
-61.9373229999999992
11
141.9576769999999897
21
-62.0296189999999967
0
LINE
8
B.Mask
6
CONTINUOUS
10
141.9576769999999897
20
-62.0296189999999967
11
142.0229400000000055
21
-62.1426579999999973
0
LINE
8
B.Mask
6
CONTINUOUS
10
142.0229400000000055
20
-62.1426579999999973
11
142.0567220000000077
21
-62.2687369999999945
0
LINE
8
B.Mask
6
CONTINUOUS
10
142.0567220000000077
20
-62.2687369999999945
11
142.0567220000000077
21
-62.3992629999999977
0
LINE
8
B.Mask
6
CONTINUOUS
10
142.0567220000000077
20
-62.3992629999999977
11
142.0229400000000055
21
-62.5253419999999949
0
LINE
8
B.Mask
6
CONTINUOUS
10
142.0229400000000055
20
-62.5253419999999949
11
141.9576769999999897
21
-62.6383809999999954
0
LINE
8
B.Mask
6
CONTINUOUS
10
141.9576769999999897
20
-62.6383809999999954
11
141.8653809999999851
21
-62.730677
0
LINE
8
B.Mask
6
CONTINUOUS
10
141.8653809999999851
20
-62.730677
11
141.7523419999999987
21
-62.7959399999999945
0
LINE
8
B.Mask
6
CONTINUOUS
10
141.7523419999999987
20
-62.7959399999999945
11
141.6262629999999945
21
-62.8297219999999967
0
LINE
8
B.Mask
6
CONTINUOUS
10
141.6262629999999945
20
-62.8297219999999967
11
141.561000000000007
21
-62.8339999999999961
0
LINE
8
B.Mask
6
CONTINUOUS
10
141.561000000000007
20
-62.8339999999999961
11
140.4609999999999843
21
-62.8339999999999961
0
LINE
8
B.Mask
6
CONTINUOUS
10
140.4609999999999843
20
-62.8339999999999961
11
140.3957369999999969
21
-62.8297219999999967
0
LINE
8
B.Mask
6
CONTINUOUS
10
140.3957369999999969
20
-62.8297219999999967
11
140.2696579999999926
21
-62.7959399999999945
0
LINE
8
B.Mask
6
CONTINUOUS
10
140.2696579999999926
20
-62.7959399999999945
11
140.1566190000000063
21
-62.730677
0
LINE
8
B.Mask
6
CONTINUOUS
10
140.1566190000000063
20
-62.730677
11
140.0643230000000017
21
-62.6383809999999954
0
LINE
8
B.Mask
6
CONTINUOUS
10
140.0643230000000017
20
-62.6383809999999954
11
139.9990599999999858
21
-62.5253419999999949
0
LINE
8
B.Mask
6
CONTINUOUS
10
139.9990599999999858
20
-62.5253419999999949
11
139.9652779999999836
21
-62.3992629999999977
0
LINE
8
B.Mask
6
CONTINUOUS
10
139.9652779999999836
20
-62.3992629999999977
11
139.9652779999999836
21
-62.2687369999999945
0
LINE
8
B.Mask
6
CONTINUOUS
10
139.9652779999999836
20
-62.2687369999999945
11
139.9990599999999858
21
-62.1426579999999973
0
LINE
8
B.Mask
6
CONTINUOUS
10
139.9990599999999858
20
-62.1426579999999973
11
140.0643230000000017
21
-62.0296189999999967
0
LINE
8
B.Mask
6
CONTINUOUS
10
140.0643230000000017
20
-62.0296189999999967
11
140.1566190000000063
21
-61.9373229999999992
0
LINE
8
B.Mask
6
CONTINUOUS
10
140.1566190000000063
20
-61.9373229999999992
11
140.2696579999999926
21
-61.8720599999999976
0
LINE
8
B.Mask
6
CONTINUOUS
10
140.2696579999999926
20
-61.8720599999999976
11
140.3957369999999969
21
-61.8382779999999954
0
LINE
8
B.Mask
6
CONTINUOUS
10
140.3957369999999969
20
-61.8382779999999954
11
140.4609999999999843
21
-61.8339999999999961
0
LINE
8
B.Mask
6
CONTINUOUS
10
140.4609999999999843
20
-61.8339999999999961
11
141.561000000000007
21
-61.8339999999999961
0
LINE
8
B.Mask
6
CONTINUOUS
10
141.561000000000007
20
-61.8339999999999961
11
141.6262629999999945
21
-61.8382779999999954
  0
ENDSEC
  0
EOF
